<?xml version="1.0" encoding="UTF-8" standalone="no"?>
<!-- Created with Inkscape (http://www.inkscape.org/) -->

<svg
   version="1.1"
   id="svg1"
   width="1733.3333"
   height="1227.7866"
   viewBox="0 0 1733.3332 1227.7866"
   xmlns="http://www.w3.org/2000/svg"
   xmlns:svg="http://www.w3.org/2000/svg">
  <defs
     id="defs1" />
  <g
     id="g1"
     transform="translate(-466.66666,-719.44008)">
    <g
       id="group-R5">
      <path
         id="path3"
         d="M 9458.33,13520.8 H 10000 v 541.7 h -541.67 v -541.7"
         style="fill:#fffcb3;fill-opacity:1;fill-rule:nonzero;stroke:none"
         transform="matrix(0.13333333,0,0,-0.13333333,0,2666.6667)" />
      <path
         id="path4"
         d="m 8916.67,10812.5 v -541.7 h 541.66 v 1083.4 h -541.66 v -541.7"
         style="fill:#fffcb3;fill-opacity:1;fill-rule:nonzero;stroke:none"
         transform="matrix(0.13333333,0,0,-0.13333333,0,2666.6667)" />
      <path
         id="path5"
         d="m 8916.67,5937.5 h 541.66 v 541.7 h -541.66 v -541.7"
         style="fill:#fffcb3;fill-opacity:1;fill-rule:nonzero;stroke:none"
         transform="matrix(0.13333333,0,0,-0.13333333,0,2666.6667)" />
      <path
         id="path6"
         d="M 8916.67,9729.2 H 8375 v -541.7 h 541.67 v 541.7"
         style="fill:#fffcb3;fill-opacity:1;fill-rule:nonzero;stroke:none"
         transform="matrix(0.13333333,0,0,-0.13333333,0,2666.6667)" />
      <path
         id="path7"
         d="M 7291.67,6479.2 V 5937.5 H 8375 v 541.7 h -541.67 -541.66"
         style="fill:#fffcb3;fill-opacity:1;fill-rule:nonzero;stroke:none"
         transform="matrix(0.13333333,0,0,-0.13333333,0,2666.6667)" />
      <path
         id="path8"
         d="m 4041.67,11354.2 h 541.66 v 541.6 h -541.66 v -541.6"
         style="fill:#fffcb3;fill-opacity:1;fill-rule:nonzero;stroke:none"
         transform="matrix(0.13333333,0,0,-0.13333333,0,2666.6667)" />
      <path
         id="path9"
         d="m 14875,11895.8 v -541.6 h 541.7 v 541.6 H 14875"
         style="fill:#fffcb3;fill-opacity:1;fill-rule:nonzero;stroke:none"
         transform="matrix(0.13333333,0,0,-0.13333333,0,2666.6667)" />
      <path
         id="path10"
         d="m 5666.67,9729.2 v -541.7 h 541.66 v 541.7 h -541.66"
         style="fill:#fe9505;fill-opacity:1;fill-rule:nonzero;stroke:none"
         transform="matrix(0.13333333,0,0,-0.13333333,0,2666.6667)" />
      <path
         id="path11"
         d="M 5666.67,10812.5 H 5125 V 9729.2 h 541.67 v 541.6 541.7"
         style="fill:#fe9505;fill-opacity:1;fill-rule:nonzero;stroke:none"
         transform="matrix(0.13333333,0,0,-0.13333333,0,2666.6667)" />
      <path
         id="path12"
         d="M 14333.3,10812.5 V 9729.2 h 541.7 v 1083.3 h -541.7"
         style="fill:#fe9505;fill-opacity:1;fill-rule:nonzero;stroke:none"
         transform="matrix(0.13333333,0,0,-0.13333333,0,2666.6667)" />
      <path
         id="path13"
         d="m 13791.7,9187.5 h 541.6 v 541.7 h -541.6 v -541.7"
         style="fill:#fe9505;fill-opacity:1;fill-rule:nonzero;stroke:none"
         transform="matrix(0.13333333,0,0,-0.13333333,0,2666.6667)" />
      <path
         id="path14"
         d="M 12166.7,7020.8 H 7291.67 V 8104.2 H 6750 v 541.6 541.7 H 6208.33 V 8645.8 8104.2 7562.5 H 6750 v -541.7 -541.6 h 541.67 541.66 541.67 541.67 541.66 541.67 541.7 541.6 541.7 541.7 541.6 541.7 v 541.6 h -541.7 -541.6"
         style="fill:#fe9505;fill-opacity:1;fill-rule:nonzero;stroke:none"
         transform="matrix(0.13333333,0,0,-0.13333333,0,2666.6667)" />
      <path
         id="path15"
         d="m 8375,5937.5 h 541.67 v 541.7 H 8375 v -541.7"
         style="fill:#fce501;fill-opacity:1;fill-rule:nonzero;stroke:none"
         transform="matrix(0.13333333,0,0,-0.13333333,0,2666.6667)" />
      <path
         id="path16"
         d="m 6750,5937.5 h 541.67 v 541.7 H 6750 v -541.7"
         style="fill:#fce501;fill-opacity:1;fill-rule:nonzero;stroke:none"
         transform="matrix(0.13333333,0,0,-0.13333333,0,2666.6667)" />
      <path
         id="path17"
         d="m 5666.67,10270.8 v -541.6 h 541.66 v 541.6 h -541.66"
         style="fill:#fce501;fill-opacity:1;fill-rule:nonzero;stroke:none"
         transform="matrix(0.13333333,0,0,-0.13333333,0,2666.6667)" />
      <path
         id="path18"
         d="m 4583.33,11354.2 h -541.66 v -541.7 H 5125 v 541.7 541.6 h -541.67 v -541.6"
         style="fill:#fce501;fill-opacity:1;fill-rule:nonzero;stroke:none"
         transform="matrix(0.13333333,0,0,-0.13333333,0,2666.6667)" />
      <path
         id="path19"
         d="m 15416.7,11895.8 v -541.6 H 14875 v -541.7 h 541.7 541.6 v 541.7 541.6 h -541.6"
         style="fill:#fce501;fill-opacity:1;fill-rule:nonzero;stroke:none"
         transform="matrix(0.13333333,0,0,-0.13333333,0,2666.6667)" />
      <path
         id="path20"
         d="m 13791.7,9729.2 h 541.6 v 541.6 h -541.6 v -541.6"
         style="fill:#fce501;fill-opacity:1;fill-rule:nonzero;stroke:none"
         transform="matrix(0.13333333,0,0,-0.13333333,0,2666.6667)" />
      <path
         id="path21"
         d="m 12708.3,9729.2 v -541.7 h -541.6 v 541.7 H 11625 v 541.6 h -541.7 v 541.7 h -541.6 v 541.7 541.6 541.7 H 10000 9458.33 v -541.7 -541.6 -541.7 -541.7 H 8916.67 8375 v -541.6 h 541.67 V 9187.5 H 8375 v 541.7 h -541.67 v -541.7 h -541.66 v 541.7 H 6750 6208.33 V 9187.5 H 6750 v -541.7 -541.6 h 541.67 v -541.7 -541.7 h 541.66 541.67 541.67 541.66 541.67 541.7 541.6 541.7 541.7 541.6 541.7 v 541.7 h 541.7 v 541.7 541.6 541.7 541.7 h -541.7 -541.7"
         style="fill:#fce501;fill-opacity:1;fill-rule:nonzero;stroke:none"
         transform="matrix(0.13333333,0,0,-0.13333333,0,2666.6667)" />
      <path
         id="path22"
         d="M 12166.7,6479.2 H 9458.33 V 5937.5 H 13250 v 541.7 h -541.7 -541.6"
         style="fill:#fce501;fill-opacity:1;fill-rule:nonzero;stroke:none"
         transform="matrix(0.13333333,0,0,-0.13333333,0,2666.6667)" />
      <path
         id="path23"
         d="m 10541.7,12979.2 v 1083.3 H 10000 v -541.7 h -541.67 v -541.6 h 541.67 541.7"
         style="fill:#fce501;fill-opacity:1;fill-rule:nonzero;stroke:none"
         transform="matrix(0.13333333,0,0,-0.13333333,0,2666.6667)" />
      <path
         id="path24"
         d="m 9458.33,14062.5 h -541.66 v -1083.3 h 541.66 v 541.6 541.7"
         style="fill:#000000;fill-opacity:1;fill-rule:nonzero;stroke:none"
         transform="matrix(0.13333333,0,0,-0.13333333,0,2666.6667)" />
      <path
         id="path25"
         d="m 9458.33,11895.8 v 541.7 h -541.66 v -1083.3 h 541.66 v 541.6"
         style="fill:#000000;fill-opacity:1;fill-rule:nonzero;stroke:none"
         transform="matrix(0.13333333,0,0,-0.13333333,0,2666.6667)" />
      <path
         id="path26"
         d="m 8916.67,10812.5 v 541.7 H 8375 v -1083.4 h 541.67 v 541.7"
         style="fill:#000000;fill-opacity:1;fill-rule:nonzero;stroke:none"
         transform="matrix(0.13333333,0,0,-0.13333333,0,2666.6667)" />
      <path
         id="path27"
         d="M 8375,10270.8 H 7833.33 V 9729.2 H 8375 v 541.6"
         style="fill:#000000;fill-opacity:1;fill-rule:nonzero;stroke:none"
         transform="matrix(0.13333333,0,0,-0.13333333,0,2666.6667)" />
      <path
         id="path28"
         d="m 7833.33,9187.5 v 541.7 h -541.66 v -541.7 h 541.66"
         style="fill:#000000;fill-opacity:1;fill-rule:nonzero;stroke:none"
         transform="matrix(0.13333333,0,0,-0.13333333,0,2666.6667)" />
      <path
         id="path29"
         d="m 6750,9729.2 h 541.67 v 541.6 H 6208.33 V 9729.2 H 6750"
         style="fill:#000000;fill-opacity:1;fill-rule:nonzero;stroke:none"
         transform="matrix(0.13333333,0,0,-0.13333333,0,2666.6667)" />
      <path
         id="path30"
         d="m 6208.33,10270.8 v 541.7 h -541.66 v -541.7 h 541.66"
         style="fill:#000000;fill-opacity:1;fill-rule:nonzero;stroke:none"
         transform="matrix(0.13333333,0,0,-0.13333333,0,2666.6667)" />
      <path
         id="path31"
         d="m 5125,10812.5 h 541.67 v 1083.3 H 5125 v -541.6 -541.7"
         style="fill:#000000;fill-opacity:1;fill-rule:nonzero;stroke:none"
         transform="matrix(0.13333333,0,0,-0.13333333,0,2666.6667)" />
      <path
         id="path32"
         d="m 5125,11895.8 v 541.7 H 4041.67 v -541.7 H 4583.33 5125"
         style="fill:#000000;fill-opacity:1;fill-rule:nonzero;stroke:none"
         transform="matrix(0.13333333,0,0,-0.13333333,0,2666.6667)" />
      <path
         id="path33"
         d="M 5125,10812.5 H 4041.67 v -541.7 h 541.66 V 9729.2 H 5125 v 541.6 541.7"
         style="fill:#000000;fill-opacity:1;fill-rule:nonzero;stroke:none"
         transform="matrix(0.13333333,0,0,-0.13333333,0,2666.6667)" />
      <path
         id="path34"
         d="M 4041.67,11895.8 H 3500 v -1083.3 h 541.67 v 541.7 541.6"
         style="fill:#000000;fill-opacity:1;fill-rule:nonzero;stroke:none"
         transform="matrix(0.13333333,0,0,-0.13333333,0,2666.6667)" />
      <path
         id="path35"
         d="m 15958.3,11895.8 v -1083.3 h 541.7 v 1083.3 h -541.7"
         style="fill:#000000;fill-opacity:1;fill-rule:nonzero;stroke:none"
         transform="matrix(0.13333333,0,0,-0.13333333,0,2666.6667)" />
      <path
         id="path36"
         d="m 15958.3,11895.8 v 541.7 H 14875 v -541.7 h 541.7 541.6"
         style="fill:#000000;fill-opacity:1;fill-rule:nonzero;stroke:none"
         transform="matrix(0.13333333,0,0,-0.13333333,0,2666.6667)" />
      <path
         id="path37"
         d="M 14875,10812.5 V 9729.2 h 541.7 v 541.6 h 541.6 v 541.7 h -541.6 -541.7"
         style="fill:#000000;fill-opacity:1;fill-rule:nonzero;stroke:none"
         transform="matrix(0.13333333,0,0,-0.13333333,0,2666.6667)" />
      <path
         id="path38"
         d="m 14875,11354.2 v 541.6 h -541.7 v -1083.3 h 541.7 v 541.7"
         style="fill:#000000;fill-opacity:1;fill-rule:nonzero;stroke:none"
         transform="matrix(0.13333333,0,0,-0.13333333,0,2666.6667)" />
      <path
         id="path39"
         d="m 14333.3,9187.5 h -541.6 v -1625 H 13250 v -541.7 -541.6 -541.7 h -541.7 -541.6 -541.7 -541.7 -541.6 H 10000 9458.33 8916.67 8375 7833.33 7291.67 6750 v 541.7 541.6 541.7 h -541.67 v 541.7 541.6 541.7 h -541.66 v 541.7 H 5125 v -541.7 -541.7 h 541.67 v -541.6 -541.7 -541.7 h 541.66 v -541.6 -541.7 -541.7 h 541.67 541.67 541.66 541.67 541.67 541.66 541.67 541.7 541.6 541.7 541.7 541.6 541.7 541.7 v 541.7 541.7 541.6 h 541.6 v 541.7 541.7 541.6 h 541.7 v 541.7 541.7 h -541.7 v -541.7"
         style="fill:#000000;fill-opacity:1;fill-rule:nonzero;stroke:none"
         transform="matrix(0.13333333,0,0,-0.13333333,0,2666.6667)" />
      <path
         id="path40"
         d="m 14333.3,10812.5 h -541.6 v -541.7 h 541.6 v 541.7"
         style="fill:#000000;fill-opacity:1;fill-rule:nonzero;stroke:none"
         transform="matrix(0.13333333,0,0,-0.13333333,0,2666.6667)" />
      <path
         id="path41"
         d="m 13791.7,9729.2 v 541.6 h -1083.4 v -541.6 h 541.7 541.7"
         style="fill:#000000;fill-opacity:1;fill-rule:nonzero;stroke:none"
         transform="matrix(0.13333333,0,0,-0.13333333,0,2666.6667)" />
      <path
         id="path42"
         d="m 12708.3,9187.5 v 541.7 h -541.6 v -541.7 h 541.6"
         style="fill:#000000;fill-opacity:1;fill-rule:nonzero;stroke:none"
         transform="matrix(0.13333333,0,0,-0.13333333,0,2666.6667)" />
      <path
         id="path43"
         d="m 12166.7,9729.2 v 541.6 H 11625 v -541.6 h 541.7"
         style="fill:#000000;fill-opacity:1;fill-rule:nonzero;stroke:none"
         transform="matrix(0.13333333,0,0,-0.13333333,0,2666.6667)" />
      <path
         id="path44"
         d="m 10541.7,12979.2 h 541.6 v 1083.3 h -541.6 v -541.7 -541.6"
         style="fill:#000000;fill-opacity:1;fill-rule:nonzero;stroke:none"
         transform="matrix(0.13333333,0,0,-0.13333333,0,2666.6667)" />
      <path
         id="path45"
         d="m 10541.7,11354.2 v -541.7 h 541.6 v -541.7 h 541.7 v 541.7 541.7 h -541.7 v 541.6 541.7 h -541.6 v -541.7 -541.6"
         style="fill:#000000;fill-opacity:1;fill-rule:nonzero;stroke:none"
         transform="matrix(0.13333333,0,0,-0.13333333,0,2666.6667)" />
      <path
         id="path46"
         d="m 10541.7,14062.5 v 541.7 H 9458.33 v -541.7 h 541.67 541.7"
         style="fill:#000000;fill-opacity:1;fill-rule:nonzero;stroke:none"
         transform="matrix(0.13333333,0,0,-0.13333333,0,2666.6667)" />
      <path
         id="path47"
         d="m 10541.7,12437.5 v 541.7 H 9458.33 v -541.7 h 541.67 541.7"
         style="fill:#000000;fill-opacity:1;fill-rule:nonzero;stroke:none"
         transform="matrix(0.13333333,0,0,-0.13333333,0,2666.6667)" />
    </g>
  </g>
</svg>
