<?xml version="1.0" encoding="UTF-8" standalone="no"?>
<!-- Created with Inkscape (http://www.inkscape.org/) -->

<svg
   width="111.13244mm"
   height="23.281961mm"
   viewBox="0 0 111.13243 23.281962"
   version="1.1"
   id="svg1"
   xml:space="preserve"
   xmlns="http://www.w3.org/2000/svg"
   xmlns:svg="http://www.w3.org/2000/svg"><defs
     id="defs1" /><g
     id="layer1"
     transform="translate(-21.722326,-146.77361)"><path
       style="fill:#000000;fill-opacity:1;stroke:none;stroke-width:0.261479"
       d="m 29.816792,146.81003 v 2.62895 l -5.391656,0.0135 -0.0047,4.06831 c 0.0017,0.48448 -4e-6,0.96892 -0.0041,1.45337 -0.898003,-6.5e-4 -1.796007,-5.3e-4 -2.69401,-5.3e-4 v 6.91831 h 2.698137 v 5.46545 h 2.767322 v 2.69814 h 3.943433 v -2.69814 h 5.673006 v 1.45285 l -5.673006,-0.0131 v 1.25843 l 6.987482,-0.006 v -2.69159 l 5.465459,3e-5 v -5.46545 l 2.658762,-0.0364 -3.4e-5,-6.87539 -2.658728,-0.006 v -5.53463 h -2.767321 l -0.03429,-2.65458 -10.965806,0.0256 m 6.987485,2.62895 h -5.673006 v -1.31448 l 5.648001,-0.016 0.025,1.33052 m 2.698145,-1.31449 v 2.62895 c 0.914006,0.003 1.828009,0.006 2.742018,0.005 l 0.02531,0.41062 v 0.96856 h -2.76733 l 0.06918,11.20764 h -8.440324 v -1.45283 h 6.987483 v -13.7691 h 1.383662 m -2.698138,2.55978 v 1.45284 h -9.685575 v 8.23277 2.14468 l -0.0025,0.83301 c 0,0 -0.953232,-0.002 -1.450304,-0.002 v -12.59156 l 11.138441,-0.0692 m 0,2.76732 v 1.52203 H 29.8168 l 0.06918,13.83661 h -1.452843 v -2.69813 h -2.767322 v -1.45284 h 2.767322 v -11.20765 h 8.371145 m 5.465458,0 v 12.66049 H 31.131256 v -1.45284 h 9.685621 v -11.20765 h 1.452844 m -17.849218,2.76732 v 4.42771 h -1.452844 v -4.42771 h 1.452844 m 12.38376,0 0.06918,4.42771 h -5.742189 v -4.42771 h 5.673007 m 8.163594,0 v 4.42771 h -1.383658 v -4.42771 h 1.383669"
       id="path1" /><path
       style="font-size:30.4156px;font-family:VT323;-inkscape-font-specification:VT323;stroke-width:0.868474"
       d="m 61.422549,152.88765 q 0.1019,0.4076 0.1019,1.019 0,0.58593 -0.1019,1.01901 0.1019,0.4076 0.1019,1.019 0,0.58593 -0.1019,1.019 h -0.764254 q 0.1019,0.40761 0.1019,1.01902 0,0.58592 -0.1019,1.019 h -1.273757 q 0.1019,0.4076 0.1019,1.01901 0,0.58593 -0.1019,1.019 h -4.076022 q -0.101901,-0.43307 -0.101901,-1.019 0,-0.61141 0.101901,-1.01901 h -1.273757 q -0.101901,-0.43308 -0.101901,-1.019 0,-0.61141 0.101901,-1.01902 h -0.764254 q -0.101901,-0.43307 -0.101901,-1.019 0,-0.6114 0.101901,-1.019 -0.101901,-0.43308 -0.101901,-1.01901 0,-0.6114 0.101901,-1.019 -0.101901,-0.43308 -0.101901,-1.01901 0,-0.6114 0.101901,-1.019 h 0.764254 q -0.101901,-0.43308 -0.101901,-1.01901 0,-0.6114 0.101901,-1.01901 h 1.273757 q -0.101901,-0.43307 -0.101901,-1.019 0,-0.61141 0.101901,-1.01901 h 4.076022 q 0.1019,0.4076 0.1019,1.01901 0,0.58593 -0.1019,1.019 h 1.273757 q 0.1019,0.40761 0.1019,1.01901 0,0.58593 -0.1019,1.01901 h 0.764254 q 0.1019,0.4076 0.1019,1.019 0,0.58593 -0.1019,1.01901 z m -2.038011,4.07601 q -0.101901,-0.43307 -0.101901,-1.019 0,-0.6114 0.101901,-1.019 -0.101901,-0.43308 -0.101901,-1.01901 0,-0.6114 0.101901,-1.019 -0.101901,-0.43308 -0.101901,-1.01901 0,-0.6114 0.101901,-1.019 h -0.764254 q -0.101901,-0.43308 -0.101901,-1.01901 0,-0.6114 0.101901,-1.01901 H 56.07277 q 0.1019,0.40761 0.1019,1.01901 0,0.58593 -0.1019,1.01901 h -0.764254 q 0.1019,0.4076 0.1019,1.019 0,0.58593 -0.1019,1.01901 0.1019,0.4076 0.1019,1.019 0,0.58593 -0.1019,1.01901 0.1019,0.4076 0.1019,1.019 0,0.58593 -0.1019,1.019 h 0.764254 q 0.1019,0.40761 0.1019,1.01902 0,0.58592 -0.1019,1.019 h 2.547514 q -0.101901,-0.43308 -0.101901,-1.019 0,-0.61141 0.101901,-1.01902 z m 12.228055,-8.15204 q 0.1019,0.40761 0.1019,1.01901 0,0.58593 -0.1019,1.01901 0.1019,0.4076 0.1019,1.019 0,0.58593 -0.1019,1.01901 0.1019,0.4076 0.1019,1.019 0,0.58593 -0.1019,1.01901 0.1019,0.4076 0.1019,1.019 0,0.58593 -0.1019,1.019 0.1019,0.40761 0.1019,1.01902 0,0.58592 -0.1019,1.019 0.1019,0.4076 0.1019,1.01901 0,0.58593 -0.1019,1.019 h -2.038011 q -0.1019,-0.43307 -0.1019,-1.019 0,-0.61141 0.1019,-1.01901 h -1.273756 q -0.101901,-0.43308 -0.101901,-1.019 0,-0.61141 0.101901,-1.01902 h -0.764255 q -0.1019,-0.43307 -0.1019,-1.019 0,-0.6114 0.1019,-1.019 h -1.019005 q -0.1019,-0.43308 -0.1019,-1.01901 0,-0.6114 0.1019,-1.019 H 65.49856 q 0.101901,0.4076 0.101901,1.019 0,0.58593 -0.101901,1.01901 0.101901,0.4076 0.101901,1.019 0,0.58593 -0.101901,1.019 0.101901,0.40761 0.101901,1.01902 0,0.58592 -0.101901,1.019 0.101901,0.4076 0.101901,1.01901 0,0.58593 -0.101901,1.019 h -2.03801 q -0.101901,-0.43307 -0.101901,-1.019 0,-0.61141 0.101901,-1.01901 -0.101901,-0.43308 -0.101901,-1.019 0,-0.61141 0.101901,-1.01902 -0.101901,-0.43307 -0.101901,-1.019 0,-0.6114 0.101901,-1.019 -0.101901,-0.43308 -0.101901,-1.01901 0,-0.6114 0.101901,-1.019 -0.101901,-0.43308 -0.101901,-1.01901 0,-0.6114 0.101901,-1.019 -0.101901,-0.43308 -0.101901,-1.01901 0,-0.6114 0.101901,-1.01901 -0.101901,-0.43307 -0.101901,-1.019 0,-0.61141 0.101901,-1.01901 h 2.547513 q 0.1019,0.4076 0.1019,1.01901 0,0.58593 -0.1019,1.019 h 0.764254 q 0.101901,0.40761 0.101901,1.01901 0,0.58593 -0.101901,1.01901 h 0.764254 q 0.101901,0.4076 0.101901,1.019 0,0.58593 -0.101901,1.01901 h 1.019006 q 0.1019,0.4076 0.1019,1.019 0,0.58593 -0.1019,1.01901 h 1.019005 q -0.1019,-0.43308 -0.1019,-1.01901 0,-0.6114 0.1019,-1.019 -0.1019,-0.43308 -0.1019,-1.01901 0,-0.6114 0.1019,-1.019 -0.1019,-0.43308 -0.1019,-1.01901 0,-0.6114 0.1019,-1.01901 -0.1019,-0.43307 -0.1019,-1.019 0,-0.61141 0.1019,-1.01901 h 2.038011 q 0.1019,0.4076 0.1019,1.01901 0,0.58593 -0.1019,1.019 z m 5.095017,6.11404 q 0.101902,0.4076 0.101902,1.019 0,0.58593 -0.101902,1.019 0.101902,0.40761 0.101902,1.01902 0,0.58592 -0.101902,1.019 h 4.076022 q 0.101901,0.4076 0.101901,1.01901 0,0.58593 -0.101901,1.019 H 74.6696 q -0.101901,-0.43307 -0.101901,-1.019 0,-0.61141 0.101901,-1.01901 -0.101901,-0.43308 -0.101901,-1.019 0,-0.61141 0.101901,-1.01902 -0.101901,-0.43307 -0.101901,-1.019 0,-0.6114 0.101901,-1.019 -0.101901,-0.43308 -0.101901,-1.01901 0,-0.6114 0.101901,-1.019 -0.101901,-0.43308 -0.101901,-1.01901 0,-0.6114 0.101901,-1.019 -0.101901,-0.43308 -0.101901,-1.01901 0,-0.6114 0.101901,-1.01901 -0.101901,-0.43307 -0.101901,-1.019 0,-0.61141 0.101901,-1.01901 h 6.114032 q 0.101901,0.4076 0.101901,1.01901 0,0.58593 -0.101901,1.019 H 76.70761 q 0.101902,0.40761 0.101902,1.01901 0,0.58593 -0.101902,1.01901 0.101902,0.4076 0.101902,1.019 0,0.58593 -0.101902,1.01901 h 4.076022 q 0.101901,0.4076 0.101901,1.019 0,0.58593 -0.101901,1.01901 z m 15.285072,0 q 0.101901,0.4076 0.101901,1.019 0,0.58593 -0.101901,1.019 0.101901,0.40761 0.101901,1.01902 0,0.58592 -0.101901,1.019 h -1.019005 q 0.1019,0.4076 0.1019,1.01901 0,0.58593 -0.1019,1.019 h -6.114033 q -0.101901,-0.43307 -0.101901,-1.019 0,-0.61141 0.101901,-1.01901 h -1.019005 q -0.101901,-0.43308 -0.101901,-1.019 0,-0.61141 0.101901,-1.01902 h 2.038011 q 0.1019,0.40761 0.1019,1.01902 0,0.58592 -0.1019,1.019 h 4.076021 q -0.101901,-0.43308 -0.101901,-1.019 0,-0.61141 0.101901,-1.01902 -0.101901,-0.43307 -0.101901,-1.019 0,-0.6114 0.101901,-1.019 h -5.095027 q -0.101901,-0.43308 -0.101901,-1.01901 0,-0.6114 0.101901,-1.019 h -1.019005 q -0.101901,-0.43308 -0.101901,-1.01901 0,-0.6114 0.101901,-1.019 -0.101901,-0.43308 -0.101901,-1.01901 0,-0.6114 0.101901,-1.01901 h 1.019005 q -0.101901,-0.43307 -0.101901,-1.019 0,-0.61141 0.101901,-1.01901 h 6.114033 q 0.1019,0.4076 0.1019,1.01901 0,0.58593 -0.1019,1.019 h 1.019005 q 0.101901,0.40761 0.101901,1.01901 0,0.58593 -0.101901,1.01901 h -2.038011 q -0.101901,-0.43308 -0.101901,-1.01901 0,-0.6114 0.101901,-1.01901 H 85.87865 q 0.1019,0.40761 0.1019,1.01901 0,0.58593 -0.1019,1.01901 0.1019,0.4076 0.1019,1.019 0,0.58593 -0.1019,1.01901 h 5.095027 q 0.1019,0.4076 0.1019,1.019 0,0.58593 -0.1019,1.01901 z m 10.291938,-7.13304 q 0,0.58593 -0.10189,1.019 h -3.057019 q 0.101899,0.40761 0.101899,1.01901 0,0.58593 -0.101899,1.01901 0.101899,0.4076 0.101899,1.019 0,0.58593 -0.101899,1.01901 0.101899,0.4076 0.101899,1.019 0,0.58593 -0.101899,1.01901 0.101899,0.4076 0.101899,1.019 0,0.58593 -0.101899,1.019 0.101899,0.40761 0.101899,1.01902 0,0.58592 -0.101899,1.019 0.101899,0.4076 0.101899,1.01901 0,0.58593 -0.101899,1.019 h -2.038012 q -0.101899,-0.43307 -0.101899,-1.019 0,-0.61141 0.101899,-1.01901 -0.101899,-0.43308 -0.101899,-1.019 0,-0.61141 0.101899,-1.01902 -0.101899,-0.43307 -0.101899,-1.019 0,-0.6114 0.101899,-1.019 -0.101899,-0.43308 -0.101899,-1.01901 0,-0.6114 0.101899,-1.019 -0.101899,-0.43308 -0.101899,-1.01901 0,-0.6114 0.101899,-1.019 -0.101899,-0.43308 -0.101899,-1.01901 0,-0.6114 0.101899,-1.01901 h -3.057015 q -0.101899,-0.43307 -0.101899,-1.019 0,-0.61141 0.101899,-1.01901 h 8.152046 q 0.10189,0.4076 0.10189,1.01901 z m 10.19005,10.19006 q 0,0.58592 -0.1019,1.019 0.1019,0.4076 0.1019,1.01901 0,0.58593 -0.1019,1.019 h -2.03801 q -0.1019,-0.43307 -0.1019,-1.019 0,-0.61141 0.1019,-1.01901 -0.1019,-0.43308 -0.1019,-1.019 0,-0.61141 0.1019,-1.01902 h -4.07602 q 0.1019,0.40761 0.1019,1.01902 0,0.58592 -0.1019,1.019 0.1019,0.4076 0.1019,1.01901 0,0.58593 -0.1019,1.019 h -2.03801 q -0.1019,-0.43307 -0.1019,-1.019 0,-0.61141 0.1019,-1.01901 -0.1019,-0.43308 -0.1019,-1.019 0,-0.61141 0.1019,-1.01902 h 0.76426 q -0.10191,-0.43307 -0.10191,-1.019 0,-0.6114 0.10191,-1.019 -0.10191,-0.43308 -0.10191,-1.01901 0,-0.6114 0.10191,-1.019 h 0.5095 q -0.1019,-0.43308 -0.1019,-1.01901 0,-0.6114 0.1019,-1.019 h 0.76425 q -0.1019,-0.43308 -0.1019,-1.01901 0,-0.6114 0.1019,-1.01901 h 0.5095 q -0.10189,-0.43307 -0.10189,-1.019 0,-0.61141 0.10189,-1.01901 h 3.05702 q 0.1019,0.4076 0.1019,1.01901 0,0.58593 -0.1019,1.019 h 0.5095 q 0.10191,0.40761 0.10191,1.01901 0,0.58593 -0.10191,1.01901 h 0.76426 q 0.10189,0.4076 0.10189,1.019 0,0.58593 -0.10189,1.01901 h 0.5095 q 0.1019,0.4076 0.1019,1.019 0,0.58593 -0.1019,1.01901 0.1019,0.4076 0.1019,1.019 0,0.58593 -0.1019,1.019 h 0.76425 q 0.1019,0.40761 0.1019,1.01902 z m -2.90416,-3.05702 q -0.1019,-0.43308 -0.1019,-1.01901 0,-0.6114 0.1019,-1.019 H 109.061 q -0.1019,-0.43308 -0.1019,-1.01901 0,-0.6114 0.1019,-1.019 h -1.5285 q 0.1019,0.4076 0.1019,1.019 0,0.58593 -0.1019,1.01901 h -0.5095 q 0.1019,0.4076 0.1019,1.019 0,0.58593 -0.1019,1.01901 z m 12.99231,2.038 q 0.1019,0.40761 0.1019,1.01902 0,0.58592 -0.1019,1.019 h -1.01901 q 0.1019,0.4076 0.1019,1.01901 0,0.58593 -0.1019,1.019 h -5.09503 q -0.1019,-0.43307 -0.1019,-1.019 0,-0.61141 0.1019,-1.01901 h -1.019 q -0.1019,-0.43308 -0.1019,-1.019 0,-0.61141 0.1019,-1.01902 h -1.01901 q -0.1019,-0.43307 -0.1019,-1.019 0,-0.6114 0.1019,-1.019 -0.1019,-0.43308 -0.1019,-1.01901 0,-0.6114 0.1019,-1.019 -0.1019,-0.43308 -0.1019,-1.01901 0,-0.6114 0.1019,-1.019 h 1.01901 q -0.1019,-0.43308 -0.1019,-1.01901 0,-0.6114 0.1019,-1.01901 h 1.019 q -0.1019,-0.43307 -0.1019,-1.019 0,-0.61141 0.1019,-1.01901 h 5.09503 q 0.1019,0.4076 0.1019,1.01901 0,0.58593 -0.1019,1.019 h 1.01901 q 0.1019,0.40761 0.1019,1.01901 0,0.58593 -0.1019,1.01901 h -2.03801 q -0.1019,-0.43308 -0.1019,-1.01901 0,-0.6114 0.1019,-1.01901 h -3.05702 q 0.1019,0.40761 0.1019,1.01901 0,0.58593 -0.1019,1.01901 h -1.01901 q 0.1019,0.4076 0.1019,1.019 0,0.58593 -0.1019,1.01901 0.1019,0.4076 0.1019,1.019 0,0.58593 -0.1019,1.01901 0.1019,0.4076 0.1019,1.019 0,0.58593 -0.1019,1.019 h 1.01901 q 0.1019,0.40761 0.1019,1.01902 0,0.58592 -0.1019,1.019 h 3.05702 q -0.1019,-0.43308 -0.1019,-1.019 0,-0.61141 0.1019,-1.01902 z m 10.19004,2.03802 q 0.1019,0.4076 0.1019,1.01901 0,0.58593 -0.1019,1.019 h -2.03801 q -0.1019,-0.43307 -0.1019,-1.019 0,-0.61141 0.1019,-1.01901 h -0.76425 q -0.1019,-0.43308 -0.1019,-1.019 0,-0.61141 0.1019,-1.01902 h -1.52852 q -0.10189,-0.43307 -0.10189,-1.019 0,-0.6114 0.10189,-1.019 h -1.78325 q 0.1019,0.4076 0.1019,1.019 0,0.58593 -0.1019,1.019 0.1019,0.40761 0.1019,1.01902 0,0.58592 -0.1019,1.019 0.1019,0.4076 0.1019,1.01901 0,0.58593 -0.1019,1.019 h -2.03802 q -0.10189,-0.43307 -0.10189,-1.019 0,-0.61141 0.10189,-1.01901 -0.10189,-0.43308 -0.10189,-1.019 0,-0.61141 0.10189,-1.01902 -0.10189,-0.43307 -0.10189,-1.019 0,-0.6114 0.10189,-1.019 -0.10189,-0.43308 -0.10189,-1.01901 0,-0.6114 0.10189,-1.019 -0.10189,-0.43308 -0.10189,-1.01901 0,-0.6114 0.10189,-1.019 -0.10189,-0.43308 -0.10189,-1.01901 0,-0.6114 0.10189,-1.01901 -0.10189,-0.43307 -0.10189,-1.019 0,-0.61141 0.10189,-1.01901 h 2.03802 q 0.1019,0.4076 0.1019,1.01901 0,0.58593 -0.1019,1.019 0.1019,0.40761 0.1019,1.01901 0,0.58593 -0.1019,1.01901 0.1019,0.4076 0.1019,1.019 0,0.58593 -0.1019,1.01901 h 1.78325 q -0.10189,-0.43308 -0.10189,-1.01901 0,-0.6114 0.10189,-1.019 h 1.52852 q -0.1019,-0.43308 -0.1019,-1.01901 0,-0.6114 0.1019,-1.01901 h 0.76425 q -0.1019,-0.43307 -0.1019,-1.019 0,-0.61141 0.1019,-1.01901 h 2.03801 q 0.1019,0.4076 0.1019,1.01901 0,0.58593 -0.1019,1.019 h -0.76425 q 0.1019,0.40761 0.1019,1.01901 0,0.58593 -0.1019,1.01901 h -1.52851 q 0.1019,0.4076 0.1019,1.019 0,0.58593 -0.1019,1.01901 h -1.27376 q 0.1019,0.4076 0.1019,1.019 0,0.58593 -0.1019,1.01901 h 1.27376 q 0.1019,0.4076 0.1019,1.019 0,0.58593 -0.1019,1.019 h 1.52851 q 0.1019,0.40761 0.1019,1.01902 0,0.58592 -0.1019,1.019 z"
       id="text1"
       aria-label="ONESTACK" /><path
       style="font-size:34.6667px;font-family:'DM Sans';-inkscape-font-specification:'DM Sans';white-space:pre;stroke-width:0.223201"
       d="m 53.334762,168.50809 v -5.41636 h 1.779663 q 0.634488,0 1.044584,0.20892 0.410097,0.20891 0.603537,0.56484 0.201181,0.35593 0.201181,0.80472 0,0.44105 -0.193443,0.79698 -0.193442,0.35593 -0.603537,0.57259 -0.410098,0.20892 -1.052322,0.20892 h -1.129699 v 2.25939 z m 0.649964,-2.80877 h 1.114222 q 0.642227,0 0.920783,-0.27855 0.278555,-0.27856 0.278555,-0.75056 0,-0.49521 -0.278555,-0.76603 -0.278556,-0.27082 -0.920783,-0.27082 h -1.114222 z m 5.014014,2.90162 q -0.541636,0 -0.974946,-0.2476 -0.433309,-0.24761 -0.688651,-0.69639 -0.247607,-0.45652 -0.247607,-1.0678 0,-0.61127 0.255343,-1.06006 0.255343,-0.45652 0.688653,-0.70412 0.441046,-0.24762 0.982683,-0.24762 0.541637,0 0.974945,0.24762 0.43331,0.2476 0.680914,0.70412 0.255344,0.44879 0.255344,1.06006 0,0.61128 -0.255344,1.0678 -0.255342,0.44878 -0.696389,0.69639 -0.43331,0.2476 -0.974945,0.2476 z m 0,-0.50294 q 0.332718,0 0.619012,-0.1625 0.286294,-0.17023 0.46426,-0.50294 0.177967,-0.33272 0.177967,-0.84341 0,-0.51068 -0.177967,-0.84341 -0.170227,-0.34045 -0.456521,-0.50294 -0.286294,-0.16249 -0.611276,-0.16249 -0.324981,0 -0.619014,0.16249 -0.286294,0.16249 -0.464259,0.50294 -0.177966,0.33273 -0.177966,0.84341 0,0.51069 0.177966,0.84341 0.177965,0.33271 0.456523,0.50294 0.286291,0.1625 0.611275,0.1625 z m 3.048643,0.41009 -1.036847,-3.83788 h 0.649962 l 0.804718,3.20339 h 0.03095 l 0.835667,-3.20339 h 0.812456 l 0.85888,3.20339 h 0.03095 l 0.781503,-3.20339 h 0.657702 l -1.067797,3.83788 h -0.804718 l -0.851143,-3.24208 h -0.03095 l -0.866619,3.24208 z m 6.399053,0.0928 q -0.549375,0 -0.974947,-0.2476 -0.425572,-0.25534 -0.673176,-0.70413 -0.239869,-0.45652 -0.239869,-1.06006 0,-0.61127 0.239869,-1.06006 0.239868,-0.44878 0.665437,-0.69639 0.433311,-0.25535 0.998161,-0.25535 0.56485,0 0.967208,0.25535 0.402357,0.24761 0.619012,0.6577 0.216655,0.40236 0.216655,0.88209 0,0.0774 0,0.17023 0,0.0851 -0.0078,0.19345 h -3.211124 v -0.50295 h 2.576642 q -0.02321,-0.54938 -0.35593,-0.85114 -0.324984,-0.30177 -0.820193,-0.30177 -0.33272,0 -0.619014,0.14701 -0.286294,0.14701 -0.46426,0.44105 -0.170229,0.29403 -0.170229,0.74281 v 0.21666 q 0,0.47973 0.177966,0.79698 0.177968,0.31725 0.464262,0.47973 0.29403,0.15476 0.611275,0.15476 0.402357,0 0.673176,-0.18571 0.270817,-0.1857 0.394621,-0.51068 h 0.642227 q -0.10059,0.35593 -0.332721,0.63449 -0.232129,0.27855 -0.580326,0.44105 -0.340456,0.16248 -0.796977,0.16248 z m 2.282612,-0.0928 v -3.83788 h 0.572588 l 0.0619,0.83567 h 0.03095 q 0.19344,-0.41784 0.379143,-0.61127 0.185706,-0.20118 0.425572,-0.25535 0.247607,-0.0619 0.611276,-0.0619 v 0.68092 H 72.64025 q -0.309507,0 -0.549375,0.0851 -0.239868,0.0773 -0.39462,0.23213 -0.154756,0.15476 -0.239869,0.39462 -0.07737,0.23213 -0.07737,0.54937 v 1.98859 z m 4.054536,0.0928 q -0.549373,0 -0.974944,-0.2476 -0.425572,-0.25534 -0.673179,-0.70413 -0.239866,-0.45652 -0.239866,-1.06006 0,-0.61127 0.239866,-1.06006 0.239868,-0.44878 0.66544,-0.69639 0.43331,-0.25535 0.998158,-0.25535 0.56485,0 0.967209,0.25535 0.402358,0.24761 0.619014,0.6577 0.216655,0.40236 0.216655,0.88209 0,0.0774 0,0.17023 0,0.0851 -0.0078,0.19345 h -3.211131 v -0.50295 h 2.576643 q -0.02322,-0.54938 -0.355934,-0.85114 -0.324982,-0.30177 -0.820192,-0.30177 -0.33272,0 -0.619012,0.14701 -0.286294,0.14701 -0.464262,0.44105 -0.170227,0.29403 -0.170227,0.74281 v 0.21666 q 0,0.47973 0.177965,0.79698 0.177966,0.31725 0.46426,0.47973 0.294033,0.15476 0.611276,0.15476 0.402358,0 0.673176,-0.18571 0.27082,-0.1857 0.394622,-0.51068 h 0.642226 q -0.100591,0.35593 -0.332721,0.63449 -0.232129,0.27855 -0.580324,0.44105 -0.340456,0.16248 -0.796979,0.16248 z m 3.977161,0 q -0.557111,0 -0.967206,-0.26308 -0.402359,-0.27082 -0.626752,-0.72734 -0.216654,-0.45652 -0.216654,-1.02137 0,-0.56485 0.216654,-1.02137 0.224393,-0.45652 0.649965,-0.71961 0.425572,-0.27082 1.029109,-0.27082 0.533899,0 0.874355,0.2244 0.348196,0.22439 0.533901,0.50295 v -2.21297 h 0.649962 v 5.41636 h -0.541636 l -0.0619,-0.73508 h -0.03095 q -0.16249,0.27855 -0.402358,0.46426 -0.23213,0.17797 -0.510686,0.27082 -0.278556,0.0928 -0.595801,0.0928 z m 0.154755,-0.56485 q 0.402359,0 0.696389,-0.17796 0.301769,-0.1857 0.46426,-0.51069 0.16249,-0.32498 0.16249,-0.75829 0,-0.43331 -0.16249,-0.75829 -0.162491,-0.32498 -0.46426,-0.50295 -0.29403,-0.1857 -0.696389,-0.1857 -0.402359,0 -0.696389,0.1857 -0.294033,0.17797 -0.456523,0.50295 -0.154753,0.32498 -0.154753,0.75829 0,0.43331 0.154753,0.75829 0.16249,0.32499 0.456523,0.51069 0.29403,0.17796 0.696389,0.17796 z m 6.375836,0.56485 q -0.309507,0 -0.595801,-0.0928 -0.278556,-0.0928 -0.510686,-0.27082 -0.23213,-0.18571 -0.402358,-0.46426 h -0.03095 l -0.0619,0.73508 h -0.541635 v -5.41636 h 0.649964 v 2.21297 q 0.185706,-0.27856 0.526162,-0.50295 0.348195,-0.2244 0.882093,-0.2244 0.611276,0 1.02911,0.27082 0.425572,0.26309 0.642227,0.71961 0.224393,0.45652 0.224393,1.02137 0,0.56485 -0.224393,1.02137 -0.216655,0.45652 -0.626751,0.72734 -0.402358,0.26308 -0.95947,0.26308 z m -0.154755,-0.56485 q 0.40236,0 0.696392,-0.17796 0.29403,-0.1857 0.448785,-0.51069 0.16249,-0.32498 0.16249,-0.75829 0,-0.43331 -0.16249,-0.75829 -0.154755,-0.32498 -0.448785,-0.50295 -0.294032,-0.1857 -0.696392,-0.1857 -0.402356,0 -0.704127,0.1857 -0.29403,0.17797 -0.456521,0.50295 -0.162491,0.32498 -0.162491,0.75829 0,0.43331 0.162491,0.75829 0.162491,0.32499 0.456521,0.51069 0.301771,0.17796 0.704127,0.17796 z m 2.754599,2.01953 0.913045,-1.98084 h -0.239866 l -1.539797,-3.40457 h 0.704127 l 1.284452,2.93258 h 0.03095 l 1.299929,-2.93258 h 0.673176 l -2.445103,5.38541 z m 6.816899,-1.45468 q -0.54164,0 -0.974953,-0.2476 -0.433305,-0.24761 -0.688645,-0.69639 -0.247613,-0.45652 -0.247613,-1.0678 0,-0.61127 0.255348,-1.06006 0.25534,-0.45652 0.688654,-0.70412 0.441041,-0.24762 0.98268,-0.24762 0.54164,0 0.974945,0.24762 0.433314,0.2476 0.680918,0.70412 0.25534,0.44879 0.25534,1.06006 0,0.61128 -0.25534,1.0678 -0.255348,0.44878 -0.696389,0.69639 -0.433314,0.2476 -0.974945,0.2476 z m 0,-0.50294 q 0.332714,0 0.619006,-0.1625 0.2863,-0.17023 0.464265,-0.50294 0.177965,-0.33272 0.177965,-0.84341 0,-0.51068 -0.177965,-0.84341 -0.170229,-0.34045 -0.456521,-0.50294 -0.2863,-0.16249 -0.611279,-0.16249 -0.324978,0 -0.619014,0.16249 -0.286291,0.16249 -0.464257,0.50294 -0.177965,0.33273 -0.177965,0.84341 0,0.51069 0.177965,0.84341 0.177966,0.33271 0.456521,0.50294 0.286292,0.1625 0.611279,0.1625 z m 2.468314,1.95762 v -5.38541 h 0.541631 l 0.06192,0.73508 h 0.03096 q 0.170229,-0.27856 0.402353,-0.45652 0.232133,-0.18571 0.510689,-0.27856 0.286291,-0.0929 0.595798,-0.0929 0.557115,0 0.959476,0.27082 0.4101,0.26309 0.62675,0.71961 0.22439,0.45652 0.22439,1.02137 0,0.56485 -0.22439,1.02137 -0.21665,0.45652 -0.64222,0.72734 -0.417831,0.26308 -1.029116,0.26308 -0.533896,0 -0.882099,-0.22439 -0.34045,-0.22439 -0.526159,-0.50295 v 2.18202 z m 1.988577,-2.01953 q 0.402359,0 0.696389,-0.17796 0.294031,-0.1857 0.448791,-0.51069 0.16249,-0.32498 0.16249,-0.75829 0,-0.43331 -0.16249,-0.75829 -0.15476,-0.32498 -0.448791,-0.50295 -0.29403,-0.1857 -0.696389,-0.1857 -0.402362,0 -0.704125,0.1857 -0.294036,0.17797 -0.45653,0.50295 -0.162485,0.32498 -0.162485,0.75829 0,0.43331 0.162485,0.75829 0.162494,0.32499 0.45653,0.51069 0.301763,0.17796 0.704125,0.17796 z m 4.24023,0.56485 q -0.54936,0 -0.97494,-0.2476 -0.42557,-0.25534 -0.67318,-0.70413 -0.23986,-0.45652 -0.23986,-1.06006 0,-0.61127 0.23986,-1.06006 0.23987,-0.44878 0.66544,-0.69639 0.43332,-0.25535 0.99816,-0.25535 0.56485,0 0.96721,0.25535 0.40236,0.24761 0.61902,0.6577 0.21665,0.40236 0.21665,0.88209 0,0.0774 0,0.17023 0,0.0851 -0.008,0.19345 h -3.21114 v -0.50295 h 2.57664 q -0.0232,-0.54938 -0.35593,-0.85114 -0.32498,-0.30177 -0.82019,-0.30177 -0.33272,0 -0.61901,0.14701 -0.28629,0.14701 -0.46427,0.44105 -0.17022,0.29403 -0.17022,0.74281 v 0.21666 q 0,0.47973 0.17797,0.79698 0.17796,0.31725 0.46426,0.47973 0.29402,0.15476 0.61127,0.15476 0.40236,0 0.67318,-0.18571 0.27082,-0.1857 0.39462,-0.51068 h 0.64223 q -0.10059,0.35593 -0.33273,0.63449 -0.23213,0.27855 -0.58032,0.44105 -0.34045,0.16248 -0.79698,0.16248 z m 2.28262,-0.0928 v -3.83788 h 0.57259 l 0.0619,0.60353 h 0.031 q 0.20118,-0.31724 0.52616,-0.50294 0.32498,-0.19345 0.7815,-0.19345 0.44105,0 0.77378,0.18571 0.33271,0.17797 0.51068,0.55712 0.18571,0.37141 0.18571,0.94399 v 2.24392 h -0.64997 v -2.17428 q 0,-0.5958 -0.25534,-0.89757 -0.25535,-0.30177 -0.73508,-0.30177 -0.33272,0 -0.5958,0.16249 -0.25534,0.16249 -0.4101,0.472 -0.14701,0.30176 -0.14701,0.75055 v 1.98858 z m 7.05676,0.0928 q -0.45652,0 -0.8202,-0.15475 -0.36366,-0.16249 -0.58806,-0.44878 -0.21665,-0.29403 -0.27081,-0.68866 h 0.66544 q 0.0464,0.19345 0.15475,0.37915 0.11607,0.17796 0.32498,0.29403 0.21666,0.11607 0.54163,0.11607 0.27856,0 0.45653,-0.0774 0.17797,-0.0851 0.26308,-0.21666 0.0928,-0.13928 0.0928,-0.30177 0,-0.20118 -0.11607,-0.32498 -0.11606,-0.1238 -0.34045,-0.20892 -0.21666,-0.0928 -0.51842,-0.17796 -0.23213,-0.0696 -0.472,-0.14702 -0.23987,-0.0851 -0.44105,-0.20118 -0.19344,-0.11606 -0.31724,-0.30177 -0.11607,-0.1857 -0.11607,-0.46426 0,-0.3095 0.17023,-0.55711 0.17023,-0.2476 0.47974,-0.39462 0.31724,-0.14702 0.74281,-0.14702 0.61128,0 0.99816,0.30177 0.39462,0.30177 0.45652,0.87436 h -0.64223 q -0.031,-0.32498 -0.2476,-0.49521 -0.20892,-0.17797 -0.57258,-0.17797 -0.35594,0 -0.54938,0.15475 -0.1857,0.15476 -0.1857,0.38689 0,0.15475 0.0929,0.25534 0.0928,0.10059 0.29403,0.17797 0.20892,0.0696 0.52616,0.17023 0.35593,0.10832 0.67318,0.23987 0.32498,0.13154 0.52616,0.34819 0.20891,0.20892 0.20891,0.57258 0.008,0.35594 -0.17796,0.6345 -0.17797,0.27081 -0.51068,0.42557 -0.32499,0.15475 -0.78151,0.15475 z m 3.72955,0 q -0.54164,0 -0.97495,-0.2476 -0.43331,-0.24761 -0.68865,-0.69639 -0.2476,-0.45652 -0.2476,-1.0678 0,-0.61127 0.25534,-1.06006 0.25534,-0.45652 0.68865,-0.70412 0.44105,-0.24762 0.98269,-0.24762 0.54163,0 0.97494,0.24762 0.43331,0.2476 0.68091,0.70412 0.25535,0.44879 0.25535,1.06006 0,0.61128 -0.25535,1.0678 -0.25534,0.44878 -0.69639,0.69639 -0.4333,0.2476 -0.97494,0.2476 z m 0,-0.50294 q 0.33272,0 0.61901,-0.1625 0.28629,-0.17023 0.46426,-0.50294 0.17797,-0.33272 0.17797,-0.84341 0,-0.51068 -0.17797,-0.84341 -0.17023,-0.34045 -0.45652,-0.50294 -0.28629,-0.16249 -0.61127,-0.16249 -0.32499,0 -0.61902,0.16249 -0.2863,0.16249 -0.46426,0.50294 -0.17797,0.33273 -0.17797,0.84341 0,0.51069 0.17797,0.84341 0.17796,0.33271 0.45652,0.50294 0.2863,0.1625 0.61128,0.1625 z m 3.86108,0.50294 q -0.44104,0 -0.77376,-0.17796 -0.32498,-0.18571 -0.51069,-0.55712 -0.1857,-0.37914 -0.1857,-0.95173 v -2.24392 h 0.64997 v 2.17429 q 0,0.59579 0.25534,0.89757 0.25534,0.30176 0.73507,0.30176 0.33272,0 0.58806,-0.16249 0.26309,-0.16249 0.4101,-0.472 0.15475,-0.3095 0.15475,-0.75055 v -1.98858 h 0.64997 v 3.83788 h -0.57258 l -0.0619,-0.60354 h -0.031 q -0.19345,0.30951 -0.52616,0.50295 -0.32499,0.19344 -0.78151,0.19344 z m 2.59213,-0.0928 v -3.83788 h 0.57258 l 0.0619,0.83567 h 0.031 q 0.19344,-0.41784 0.37915,-0.61127 0.1857,-0.20118 0.42557,-0.25535 0.2476,-0.0619 0.61128,-0.0619 v 0.68092 h -0.17023 q -0.30951,0 -0.54938,0.0851 -0.23987,0.0773 -0.39461,0.23213 -0.15476,0.15476 -0.23987,0.39462 -0.0774,0.23213 -0.0774,0.54937 v 1.98859 z m 4.09323,0.0928 q -0.60355,0 -1.03685,-0.2476 -0.42557,-0.25534 -0.6577,-0.70413 -0.23214,-0.45652 -0.23214,-1.06006 0,-0.60354 0.24761,-1.05232 0.25535,-0.45652 0.68865,-0.70413 0.44105,-0.25535 0.99043,-0.25535 0.68865,0 1.15291,0.35594 0.46425,0.35593 0.58806,0.95173 h -0.66544 q -0.0774,-0.39462 -0.37915,-0.5958 -0.30177,-0.20891 -0.70412,-0.20891 -0.32499,0 -0.61128,0.17023 -0.28629,0.16249 -0.46426,0.4952 -0.17797,0.33273 -0.17797,0.84341 0,0.36367 0.0929,0.64223 0.10059,0.27082 0.27082,0.45652 0.17022,0.1857 0.39461,0.27855 0.23214,0.0929 0.49522,0.0929 0.27081,0 0.49521,-0.0851 0.22439,-0.0928 0.37914,-0.26308 0.15475,-0.17796 0.20892,-0.41783 h 0.66544 q -0.12381,0.58032 -0.58806,0.94399 -0.46426,0.36367 -1.15291,0.36367 z m 4.01584,0 q -0.54937,0 -0.97495,-0.2476 -0.42557,-0.25534 -0.67317,-0.70413 -0.23987,-0.45652 -0.23987,-1.06006 0,-0.61127 0.23987,-1.06006 0.23987,-0.44878 0.66544,-0.69639 0.43331,-0.25535 0.99816,-0.25535 0.56484,0 0.96721,0.25535 0.40235,0.24761 0.61901,0.6577 0.21665,0.40236 0.21665,0.88209 0,0.0774 0,0.17023 0,0.0851 -0.008,0.19345 h -3.21113 v -0.50295 h 2.57664 q -0.0232,-0.54938 -0.35593,-0.85114 -0.32498,-0.30177 -0.82019,-0.30177 -0.33272,0 -0.61902,0.14701 -0.28629,0.14701 -0.46426,0.44105 -0.17022,0.29403 -0.17022,0.74281 v 0.21666 q 0,0.47973 0.17796,0.79698 0.17797,0.31725 0.46426,0.47973 0.29404,0.15476 0.61128,0.15476 0.40235,0 0.67317,-0.18571 0.27082,-0.1857 0.39462,-0.51068 h 0.64223 q -0.10059,0.35593 -0.33272,0.63449 -0.23213,0.27855 -0.58032,0.44105 -0.34046,0.16248 -0.79698,0.16248 z"
       id="text3"
       aria-label="Powered by open source" /></g></svg>
