<svg width="312" xmlns="http://www.w3.org/2000/svg" height="261" id="screenshot-8de65616-cfce-8065-8004-b65b957bdefa" fill="none" version="1.1"><g id="shape-8de65616-cfce-8065-8004-b65b957bdefa" data-testid="Group"><g class="fills" id="fills-8de65616-cfce-8065-8004-b65b957bdefa"><rect rx="0" ry="0" width="312" height="261" class="frame-background"/></g><g class="frame-children"><g id="shape-8de65616-cfce-8065-8004-b65b957bdefb" data-testid="Group"><g id="shape-8de65616-cfce-8065-8004-b65b957bdefc" data-testid="Path"><defs><linearGradient id="fill-color-gradient-render-3-0" x1=".013" y1=".538" x2="1" y2=".543"><stop offset="0" stop-color="#727272"/><stop offset="1" stop-color="#bbb" stop-opacity="0"/></linearGradient><pattern patternUnits="userSpaceOnUse" x="75.672" y="0" width="236.328" height="261" id="fill-0-render-3"><rect width="236.328" height="261" style="fill: url(&quot;#fill-color-gradient-render-3-0&quot;);"/></pattern></defs><path d="M75.672 135.993 179.809 0h132.099L312 261H173.725l-60.436-77.05-37.617-47.957Z" fill="url(#fill-0-render-3)" class="fills" id="fills-8de65616-cfce-8065-8004-b65b957bdefc"/></g><g id="shape-8de65616-cfce-8065-8004-b65b957bdefd" data-testid="Group"><g data-testid="calendly" style="fill:rgb(0, 0, 0)"><g id="shape-8de65616-cfce-8065-8004-b65b957bdf02" data-testid="Layer_2" style="fill: rgb(0, 0, 0);"><g id="shape-8de65616-cfce-8065-8004-b65b957bdf03" data-testid="Logo_assets" style="fill: rgb(0, 0, 0);"><g id="shape-8de65616-cfce-8065-8004-b65b957bdf04" data-testid="Brand_mark" style="fill: rgb(0, 0, 0);"><g id="shape-8de65616-cfce-8065-8004-b65b957bdf05" data-testid="svg-path"><g class="fills" id="fills-8de65616-cfce-8065-8004-b65b957bdf05"><path d="m269.807 53.23-2.406 4.171a12.355 12.355 0 0 1-10.7 6.182h-4.812a12.355 12.355 0 0 1-10.7-6.182l-2.405-4.171a12.376 12.376 0 0 1 0-12.366l2.405-4.171a12.354 12.354 0 0 1 10.7-6.183h4.812c4.414 0 8.493 2.357 10.7 6.183l2.406 4.171c.288.5.541 1.02.757 1.556 0 .01.008.02.011.031a9.052 9.052 0 0 0 3.927-1.617c0-.013-.008-.025-.012-.038a21.124 21.124 0 0 0-2.948-5.991 21.334 21.334 0 0 0-4.606-4.74c-8.899-6.692-21.455-5.352-28.745 3.067-7.291 8.419-6.83 21.049 1.053 28.914a21.193 21.193 0 0 0 20.092 5.587 21.214 21.214 0 0 0 15.157-14.335l.011-.038a9.048 9.048 0 0 0-3.926-1.617c0 .011-.008.021-.011.032a12.488 12.488 0 0 1-.76 1.555Z" class="cls-1" style="fill: rgb(255, 255, 255); fill-opacity: 0;"/></g><g class="strokes" id="strokes-8de65616-cfce-8065-8004-b65b957bdf05"><path d="m269.807 53.23-2.406 4.171a12.355 12.355 0 0 1-10.7 6.182h-4.812a12.355 12.355 0 0 1-10.7-6.182l-2.405-4.171a12.376 12.376 0 0 1 0-12.366l2.405-4.171a12.354 12.354 0 0 1 10.7-6.183h4.812c4.414 0 8.493 2.357 10.7 6.183l2.406 4.171c.288.5.541 1.02.757 1.556 0 .01.008.02.011.031a9.052 9.052 0 0 0 3.927-1.617c0-.013-.008-.025-.012-.038a21.124 21.124 0 0 0-2.948-5.991 21.334 21.334 0 0 0-4.606-4.74c-8.899-6.692-21.455-5.352-28.745 3.067-7.291 8.419-6.83 21.049 1.053 28.914a21.193 21.193 0 0 0 20.092 5.587 21.214 21.214 0 0 0 15.157-14.335l.011-.038a9.048 9.048 0 0 0-3.926-1.617c0 .011-.008.021-.011.032a12.488 12.488 0 0 1-.76 1.555Z" style="fill: none; stroke-width: 2; stroke: rgb(0, 0, 0); stroke-opacity: 1;" class="stroke-shape"/></g></g><g id="shape-8de65616-cfce-8065-8004-b65b957bdf06" data-testid="svg-path"><g class="fills" id="fills-8de65616-cfce-8065-8004-b65b957bdf06"><path d="M262.426 54.097c-1.506 1.338-3.384 3.002-6.8 3.002h-2.037c-2.469 0-4.714-.897-6.321-2.525-1.569-1.59-2.434-3.767-2.434-6.13v-2.793c0-2.364.865-4.541 2.434-6.131 1.607-1.628 3.852-2.525 6.321-2.525h2.037c3.416 0 5.292 1.665 6.8 3.002 1.563 1.387 2.914 2.585 6.511 2.585.549 0 1.097-.044 1.638-.131 0-.011-.007-.021-.011-.031a12.414 12.414 0 0 0-.757-1.556l-2.406-4.171a12.354 12.354 0 0 0-10.7-6.183h-4.812a12.354 12.354 0 0 0-10.7 6.183l-2.405 4.171a12.376 12.376 0 0 0 0 12.366l2.405 4.171a12.355 12.355 0 0 0 10.7 6.182h4.812c4.414 0 8.493-2.357 10.7-6.182l2.406-4.171c.288-.5.541-1.02.757-1.555 0-.011.008-.021.011-.032a10.32 10.32 0 0 0-1.638-.131c-3.597 0-4.948 1.198-6.511 2.585Z" class="cls-2" style="fill: rgb(255, 255, 255); fill-opacity: 0;"/></g><g class="strokes" id="strokes-8de65616-cfce-8065-8004-b65b957bdf06"><path d="M262.426 54.097c-1.506 1.338-3.384 3.002-6.8 3.002h-2.037c-2.469 0-4.714-.897-6.321-2.525-1.569-1.59-2.434-3.767-2.434-6.13v-2.793c0-2.364.865-4.541 2.434-6.131 1.607-1.628 3.852-2.525 6.321-2.525h2.037c3.416 0 5.292 1.665 6.8 3.002 1.563 1.387 2.914 2.585 6.511 2.585.549 0 1.097-.044 1.638-.131 0-.011-.007-.021-.011-.031a12.414 12.414 0 0 0-.757-1.556l-2.406-4.171a12.354 12.354 0 0 0-10.7-6.183h-4.812a12.354 12.354 0 0 0-10.7 6.183l-2.405 4.171a12.376 12.376 0 0 0 0 12.366l2.405 4.171a12.355 12.355 0 0 0 10.7 6.182h4.812c4.414 0 8.493-2.357 10.7-6.182l2.406-4.171c.288-.5.541-1.02.757-1.555 0-.011.008-.021.011-.032a10.32 10.32 0 0 0-1.638-.131c-3.597 0-4.948 1.198-6.511 2.585Z" style="fill: none; stroke-width: 2; stroke: rgb(0, 0, 0); stroke-opacity: 1;" class="stroke-shape"/></g></g><g id="shape-8de65616-cfce-8065-8004-b65b957bdf07" data-testid="svg-path"><g class="fills" id="fills-8de65616-cfce-8065-8004-b65b957bdf07"><path d="M255.626 39.525h-2.037c-3.757 0-6.226 2.685-6.226 6.124v2.793c0 3.438 2.469 6.124 6.226 6.124h2.037c5.475 0 5.048-5.584 13.311-5.584.783-.001 1.565.07 2.335.213a12.343 12.343 0 0 0 0-4.295c-.77.143-1.552.215-2.335.214-8.266-.001-7.836-5.589-13.311-5.589Z" class="cls-2" style="fill: rgb(255, 255, 255); fill-opacity: 0;"/></g><g class="strokes" id="strokes-8de65616-cfce-8065-8004-b65b957bdf07"><path d="M255.626 39.525h-2.037c-3.757 0-6.226 2.685-6.226 6.124v2.793c0 3.438 2.469 6.124 6.226 6.124h2.037c5.475 0 5.048-5.584 13.311-5.584.783-.001 1.565.07 2.335.213a12.343 12.343 0 0 0 0-4.295c-.77.143-1.552.215-2.335.214-8.266-.001-7.836-5.589-13.311-5.589Z" style="fill: none; stroke-width: 2; stroke: rgb(0, 0, 0); stroke-opacity: 1;" class="stroke-shape"/></g></g><g id="shape-8de65616-cfce-8065-8004-b65b957bdf08" data-testid="svg-path"><g class="fills" id="fills-8de65616-cfce-8065-8004-b65b957bdf08"><path d="M276.021 51.237a11.51 11.51 0 0 0-4.749-2.039c0 .014-.004.028-.007.042-.147.824-.378 1.63-.69 2.407a9.052 9.052 0 0 1 3.927 1.617c0 .012-.008.025-.012.038a21.113 21.113 0 0 1-2.948 5.989 21.339 21.339 0 0 1-4.606 4.741c-8.9 6.701-21.463 5.364-28.757-3.06-7.293-8.424-6.828-21.06 1.065-28.924a21.193 21.193 0 0 1 20.092-5.587 21.214 21.214 0 0 1 15.157 14.335l.011.038a9.041 9.041 0 0 1-3.929 1.616c.312.777.543 1.585.691 2.409 0 .013 0 .027.006.039a11.51 11.51 0 0 0 4.749-2.039c1.354-1.002 1.092-2.135.886-2.805-2.984-9.702-12.008-16.75-22.677-16.75-13.101 0-23.723 10.63-23.723 23.743 0 13.112 10.622 23.744 23.723 23.744 10.669 0 19.693-7.049 22.672-16.748.211-.67.473-1.803-.881-2.806Z" class="cls-2" style="fill: rgb(255, 255, 255); fill-opacity: 0;"/></g><g class="strokes" id="strokes-8de65616-cfce-8065-8004-b65b957bdf08"><path d="M276.021 51.237a11.51 11.51 0 0 0-4.749-2.039c0 .014-.004.028-.007.042-.147.824-.378 1.63-.69 2.407a9.052 9.052 0 0 1 3.927 1.617c0 .012-.008.025-.012.038a21.113 21.113 0 0 1-2.948 5.989 21.339 21.339 0 0 1-4.606 4.741c-8.9 6.701-21.463 5.364-28.757-3.06-7.293-8.424-6.828-21.06 1.065-28.924a21.193 21.193 0 0 1 20.092-5.587 21.214 21.214 0 0 1 15.157 14.335l.011.038a9.041 9.041 0 0 1-3.929 1.616c.312.777.543 1.585.691 2.409 0 .013 0 .027.006.039a11.51 11.51 0 0 0 4.749-2.039c1.354-1.002 1.092-2.135.886-2.805-2.984-9.702-12.008-16.75-22.677-16.75-13.101 0-23.723 10.63-23.723 23.743 0 13.112 10.622 23.744 23.723 23.744 10.669 0 19.693-7.049 22.672-16.748.211-.67.473-1.803-.881-2.806Z" style="fill: none; stroke-width: 2; stroke: rgb(0, 0, 0); stroke-opacity: 1;" class="stroke-shape"/></g></g><g id="shape-8de65616-cfce-8065-8004-b65b957bdf09" data-testid="svg-path"><g class="fills" id="fills-8de65616-cfce-8065-8004-b65b957bdf09"><path d="M270.575 42.45a10.32 10.32 0 0 1-1.638.131c-3.597 0-4.948-1.198-6.511-2.585-1.506-1.337-3.384-3.002-6.8-3.002h-2.037c-2.469 0-4.714.897-6.321 2.525-1.569 1.591-2.434 3.768-2.434 6.131v2.793c0 2.363.865 4.54 2.434 6.13 1.607 1.628 3.852 2.525 6.321 2.525h2.037c3.416 0 5.292-1.664 6.8-3.002 1.563-1.387 2.914-2.585 6.511-2.585.549 0 1.097.044 1.638.132.312-.777.543-1.584.69-2.408 0-.013.006-.027.007-.042a12.79 12.79 0 0 0-2.335-.213c-8.266 0-7.836 5.584-13.311 5.584h-2.037c-3.757 0-6.226-2.686-6.226-6.124v-2.789c0-3.439 2.469-6.125 6.226-6.125h2.037c5.475 0 5.048 5.585 13.311 5.585.783.001 1.565-.071 2.335-.215 0-.012 0-.025-.006-.039a12.285 12.285 0 0 0-.691-2.407Z" class="cls-3" style="fill: rgb(255, 255, 255); fill-opacity: 0;"/></g><g class="strokes" id="strokes-8de65616-cfce-8065-8004-b65b957bdf09"><path d="M270.575 42.45a10.32 10.32 0 0 1-1.638.131c-3.597 0-4.948-1.198-6.511-2.585-1.506-1.337-3.384-3.002-6.8-3.002h-2.037c-2.469 0-4.714.897-6.321 2.525-1.569 1.591-2.434 3.768-2.434 6.131v2.793c0 2.363.865 4.54 2.434 6.13 1.607 1.628 3.852 2.525 6.321 2.525h2.037c3.416 0 5.292-1.664 6.8-3.002 1.563-1.387 2.914-2.585 6.511-2.585.549 0 1.097.044 1.638.132.312-.777.543-1.584.69-2.408 0-.013.006-.027.007-.042a12.79 12.79 0 0 0-2.335-.213c-8.266 0-7.836 5.584-13.311 5.584h-2.037c-3.757 0-6.226-2.686-6.226-6.124v-2.789c0-3.439 2.469-6.125 6.226-6.125h2.037c5.475 0 5.048 5.585 13.311 5.585.783.001 1.565-.071 2.335-.215 0-.012 0-.025-.006-.039a12.285 12.285 0 0 0-.691-2.407Z" style="fill: none; stroke-width: 2; stroke: rgb(0, 0, 0); stroke-opacity: 1;" class="stroke-shape"/></g></g><g id="shape-8de65616-cfce-8065-8004-b65b957c1ee8" data-testid="svg-path"><g class="fills" id="fills-8de65616-cfce-8065-8004-b65b957c1ee8"><path d="M270.575 42.45a10.32 10.32 0 0 1-1.638.131c-3.597 0-4.948-1.198-6.511-2.585-1.506-1.337-3.384-3.002-6.8-3.002h-2.037c-2.469 0-4.714.897-6.321 2.525-1.569 1.591-2.434 3.768-2.434 6.131v2.793c0 2.363.865 4.54 2.434 6.13 1.607 1.628 3.852 2.525 6.321 2.525h2.037c3.416 0 5.292-1.664 6.8-3.002 1.563-1.387 2.914-2.585 6.511-2.585.549 0 1.097.044 1.638.132.312-.777.543-1.584.69-2.408 0-.013.006-.027.007-.042a12.79 12.79 0 0 0-2.335-.213c-8.266 0-7.836 5.584-13.311 5.584h-2.037c-3.757 0-6.226-2.686-6.226-6.124v-2.789c0-3.439 2.469-6.125 6.226-6.125h2.037c5.475 0 5.048 5.585 13.311 5.585.783.001 1.565-.071 2.335-.215 0-.012 0-.025-.006-.039a12.285 12.285 0 0 0-.691-2.407Z" class="cls-3" style="fill: rgb(255, 255, 255); fill-opacity: 0;"/></g><g class="strokes" id="strokes-8de65616-cfce-8065-8004-b65b957c1ee8"><path d="M270.575 42.45a10.32 10.32 0 0 1-1.638.131c-3.597 0-4.948-1.198-6.511-2.585-1.506-1.337-3.384-3.002-6.8-3.002h-2.037c-2.469 0-4.714.897-6.321 2.525-1.569 1.591-2.434 3.768-2.434 6.131v2.793c0 2.363.865 4.54 2.434 6.13 1.607 1.628 3.852 2.525 6.321 2.525h2.037c3.416 0 5.292-1.664 6.8-3.002 1.563-1.387 2.914-2.585 6.511-2.585.549 0 1.097.044 1.638.132.312-.777.543-1.584.69-2.408 0-.013.006-.027.007-.042a12.79 12.79 0 0 0-2.335-.213c-8.266 0-7.836 5.584-13.311 5.584h-2.037c-3.757 0-6.226-2.686-6.226-6.124v-2.789c0-3.439 2.469-6.125 6.226-6.125h2.037c5.475 0 5.048 5.585 13.311 5.585.783.001 1.565-.071 2.335-.215 0-.012 0-.025-.006-.039a12.285 12.285 0 0 0-.691-2.407Z" style="fill: none; stroke-width: 2; stroke: rgb(0, 0, 0); stroke-opacity: 1;" class="stroke-shape"/></g></g></g></g></g></g><g id="shape-8de65616-cfce-8065-8004-b65b957c1ee9" data-testid="linear" style="fill: rgb(0, 0, 0);"><g id="shape-8de65616-cfce-8065-8004-b65b957c1eea" data-testid="svg-path"><defs><linearGradient x1="256" y1="96" x2="256" y2="416" id="render-18-g" gradientUnits="userSpaceOnUse" gradientTransform="matrix(.14558 0 0 .14571 218.84 92.483)"><stop stop-color="#fff"/><stop offset="1" stop-color="#CCC"/></linearGradient></defs><path d="M270.866 147.023a.676.676 0 0 0 .934.028c.263-.241.521-.488.774-.741 9.105-9.113 9.105-23.89 0-33.004-9.106-9.113-23.87-9.113-32.976 0-.252.253-.499.511-.74.775a.677.677 0 0 0 .028.935l31.98 32.007Z" fill="url(#render-18-g)" style="fill: rgb(0, 0, 0); fill-opacity: 1;" class="fills" id="fills-8de65616-cfce-8065-8004-b65b957c1eea"/></g><g id="shape-8de65616-cfce-8065-8004-b65b957c1eeb" data-testid="svg-path"><defs><radialGradient cx="0" cy="0" r="1" id="render-19-h" gradientTransform="matrix(0 46.6272 -46.5872 0 256.11 106.471)" gradientUnits="userSpaceOnUse"><stop stop-color="#fff"/><stop offset=".598" stop-color="#fff" stop-opacity="0"/></radialGradient></defs><path d="M270.866 147.023a.676.676 0 0 0 .934.028c.263-.241.521-.488.774-.741 9.105-9.113 9.105-23.89 0-33.004-9.106-9.113-23.87-9.113-32.976 0-.252.253-.499.511-.74.775a.677.677 0 0 0 .028.935l31.98 32.007Z" fill="url(#render-19-h)" style="fill: rgb(0, 0, 0); fill-opacity: 1;" class="fills" id="fills-8de65616-cfce-8065-8004-b65b957c1eeb"/></g><g id="shape-8de65616-cfce-8065-8004-b65b957c1eec" data-testid="svg-path"><defs><linearGradient x1="256" y1="96" x2="256" y2="416" id="render-20-i" gradientUnits="userSpaceOnUse" gradientTransform="matrix(.14558 0 0 .14571 218.84 92.483)"><stop stop-color="#fff"/><stop offset="1" stop-color="#CCC"/></linearGradient></defs><path d="M267.805 149.991a.673.673 0 0 0 .127-1.059l-30.953-30.98a.671.671 0 0 0-1.058.127c-.378.65-.724 1.317-1.037 2a.68.68 0 0 0 .141.762l30.02 30.046a.677.677 0 0 0 .761.141c.683-.313 1.35-.659 1.999-1.037Z" fill="url(#render-20-i)" style="fill: rgb(0, 0, 0); fill-opacity: 1;" class="fills" id="fills-8de65616-cfce-8065-8004-b65b957c1eec"/></g><g id="shape-8de65616-cfce-8065-8004-b65b957c1eed" data-testid="svg-path"><defs><radialGradient cx="0" cy="0" r="1" id="render-21-j" gradientTransform="matrix(0 46.6272 -46.5872 0 256.11 106.471)" gradientUnits="userSpaceOnUse"><stop stop-color="#fff"/><stop offset=".598" stop-color="#fff" stop-opacity="0"/></radialGradient></defs><path d="M267.805 149.991a.673.673 0 0 0 .127-1.059l-30.953-30.98a.671.671 0 0 0-1.058.127c-.378.65-.724 1.317-1.037 2a.68.68 0 0 0 .141.762l30.02 30.046a.677.677 0 0 0 .761.141c.683-.313 1.35-.659 1.999-1.037Z" fill="url(#render-21-j)" style="fill: rgb(0, 0, 0); fill-opacity: 1;" class="fills" id="fills-8de65616-cfce-8065-8004-b65b957c1eed"/></g><g id="shape-8de65616-cfce-8065-8004-b65b957c1eee" data-testid="svg-path"><defs><linearGradient x1="256" y1="96" x2="256" y2="416" id="render-22-k" gradientUnits="userSpaceOnUse" gradientTransform="matrix(.14558 0 0 .14571 218.84 92.483)"><stop stop-color="#fff"/><stop offset="1" stop-color="#CCC"/></linearGradient></defs><path d="M260.573 152.712c.527-.103.707-.748.328-1.128l-26.572-26.595c-.379-.38-1.024-.199-1.127.328a23.443 23.443 0 0 0-.364 2.691.677.677 0 0 0 .199.532l24.316 24.337c.14.141.334.214.532.199.902-.069 1.8-.191 2.688-.364Z" fill="url(#render-22-k)" style="fill: rgb(0, 0, 0); fill-opacity: 1;" class="fills" id="fills-8de65616-cfce-8065-8004-b65b957c1eee"/></g><g id="shape-8de65616-cfce-8065-8004-b65b957c1eef" data-testid="svg-path"><defs><radialGradient cx="0" cy="0" r="1" id="render-23-l" gradientTransform="matrix(0 46.6272 -46.5872 0 256.11 106.471)" gradientUnits="userSpaceOnUse"><stop stop-color="#fff"/><stop offset=".598" stop-color="#fff" stop-opacity="0"/></radialGradient></defs><path d="M260.573 152.712c.527-.103.707-.748.328-1.128l-26.572-26.595c-.379-.38-1.024-.199-1.127.328a23.443 23.443 0 0 0-.364 2.691.677.677 0 0 0 .199.532l24.316 24.337c.14.141.334.214.532.199.902-.069 1.8-.191 2.688-.364Z" fill="url(#render-23-l)" style="fill: rgb(0, 0, 0); fill-opacity: 1;" class="fills" id="fills-8de65616-cfce-8065-8004-b65b957c1eef"/></g><g id="shape-8de65616-cfce-8065-8004-b65b957c65b5" data-testid="svg-path"><defs><linearGradient x1="256" y1="96" x2="256" y2="416" id="render-24-m" gradientUnits="userSpaceOnUse" gradientTransform="matrix(.14558 0 0 .14571 218.84 92.483)"><stop stop-color="#fff"/><stop offset="1" stop-color="#CCC"/></linearGradient></defs><path d="M250.436 152.454c.648.161 1.048-.606.576-1.078l-16.475-16.49c-.472-.472-1.238-.071-1.077.577a23.22 23.22 0 0 0 6.138 10.847 23.21 23.21 0 0 0 10.838 6.144Z" fill="url(#render-24-m)" style="fill: rgb(0, 0, 0); fill-opacity: 1;" class="fills" id="fills-8de65616-cfce-8065-8004-b65b957c65b5"/></g></g><g id="shape-8de65616-cfce-8065-8004-b65b957c65b6" data-testid="notion" style="fill: rgb(0, 0, 0);"><g id="shape-8de65616-cfce-8065-8004-b65b957c65b7" data-testid="svg-path"><path d="m265.178 191.672-24.231.971a1.091 1.091 0 0 0-.057.004l-.041.003a1.942 1.942 0 0 0-1.804 1.935v26.983c0 1.15.341 2.274.978 3.231l5.169 7.76a1.937 1.937 0 0 0 1.735.861l31.045-1.942a1.941 1.941 0 0 0 1.819-1.938v-30.1c0-.486-.183-.955-.512-1.313a.974.974 0 0 0-.288-.254l-.003-.004a1.99 1.99 0 0 0-.364-.208l-7.958-4.544.064.042a8.732 8.732 0 0 0-5.552-1.487Zm.11 1.938c.011 0 .023 0 0 0Za6.825 6.825 0 0 1 4.415 1.195l4.896 2.795-26.133.846-4.631-3.975 21.453-.861Zm10.622 7.836v26.27l-27.164 1.699v-27.093l27.164-.876Zm-3.024 3.823c-1.967.117-3.946.213-5.919.361-.648.048-1.129.609-1.209 1.225-.037.287.042.435.368.459.597.044 1.19.129 1.811.201v11.397c-.182-.262-.282-.4-.375-.542-2.542-3.843-5.095-7.679-7.614-11.538-.38-.582-.736-.863-1.496-.777-1.78.196-3.574.254-5.359.398-.99.079-1.577.947-1.311 1.889l2.035.178v16.374c-.454.128-.907.272-1.364.383-.466.113-.684.426-.774.857-.071.346.013.521.436.489 1.454-.102 2.915-.166 4.37-.254.601-.035 1.204-.047 1.796-.144.807-.134 1.247-.626 1.334-1.415-.718-.159-1.44-.334-2.168-.474-.324-.062-.434-.195-.432-.531.012-3.798.01-7.599.012-11.397 0-.125.026-.251.049-.459.112.149.158.211.201.277 1.963 3.05 3.921 6.109 5.896 9.152.85 1.309 1.721 2.604 2.615 3.884.648.928 1.599 1.223 2.68.997.675-.141 1.324-.412 1.985-.622.369-.116.476-.355.474-.743-.014-5.581-.008-11.161-.008-16.742 0-1.039-.003-1.038 1.027-1.252.947-.196 1.226-.66.94-1.631Z" style="fill: rgb(0, 0, 0); fill-opacity: 1;" class="fills" id="fills-8de65616-cfce-8065-8004-b65b957c65b7"/></g></g><g id="shape-8de65616-cfce-8065-8004-b65b957c65b8" data-testid="figma" style="fill: rgb(0, 0, 0);"><g id="shape-8de65616-cfce-8065-8004-b65b957c65b9" data-testid="svg-path"><path d="M172.881 100.205c0-5.577 4.039-10.098 9.022-10.098 4.983 0 9.022 4.521 9.022 10.098 0 5.577-4.039 10.099-9.022 10.099-4.983 0-9.022-4.522-9.022-10.099Z" style="fill: rgb(177, 178, 181); fill-opacity: 0;" class="fills" id="fills-8de65616-cfce-8065-8004-b65b957c65b9"/><g id="strokes-8de65616-cfce-8065-8004-b65b957c65b9" class="strokes"><path d="M172.881 100.205c0-5.577 4.039-10.098 9.022-10.098 4.983 0 9.022 4.521 9.022 10.098 0 5.577-4.039 10.099-9.022 10.099-4.983 0-9.022-4.522-9.022-10.099Z" style="fill: none; stroke-width: 2; stroke: rgb(0, 0, 0); stroke-opacity: 1;" class="stroke-shape"/></g></g><g id="shape-8de65616-cfce-8065-8004-b65b957c65ba" data-testid="svg-path"><path d="M154.836 120.402c0-5.577 4.039-10.098 9.022-10.098h9.023v10.098c0 5.577-4.04 10.098-9.023 10.098s-9.022-4.521-9.022-10.098Z" style="fill: rgb(177, 178, 181); fill-opacity: 0;" class="fills" id="fills-8de65616-cfce-8065-8004-b65b957c65ba"/><g id="strokes-8de65616-cfce-8065-8004-b65b957c65ba" class="strokes"><path d="M154.836 120.402c0-5.577 4.039-10.098 9.022-10.098h9.023v10.098c0 5.577-4.04 10.098-9.023 10.098s-9.022-4.521-9.022-10.098Z" style="fill: none; stroke-width: 2; stroke: rgb(0, 0, 0); stroke-opacity: 1;" class="stroke-shape"/></g></g><g id="shape-8de65616-cfce-8065-8004-b65b957c65bb" data-testid="svg-path"><path d="M172.881 69.911v20.196h9.022c4.983 0 9.022-4.521 9.022-10.098 0-5.577-4.039-10.098-9.022-10.098h-9.022Z" style="fill: rgb(177, 178, 181); fill-opacity: 0;" class="fills" id="fills-8de65616-cfce-8065-8004-b65b957c65bb"/><g id="strokes-8de65616-cfce-8065-8004-b65b957c65bb" class="strokes"><path d="M172.881 69.911v20.196h9.022c4.983 0 9.022-4.521 9.022-10.098 0-5.577-4.039-10.098-9.022-10.098h-9.022Z" style="fill: none; stroke-width: 2; stroke: rgb(0, 0, 0); stroke-opacity: 1;" class="stroke-shape"/></g></g><g id="shape-8de65616-cfce-8065-8004-b65b957c65bc" data-testid="svg-path"><path d="M154.836 80.009c0 5.577 4.039 10.098 9.022 10.098h9.023V69.911h-9.023c-4.983 0-9.022 4.521-9.022 10.098Z" style="fill: rgb(177, 178, 181); fill-opacity: 0;" class="fills" id="fills-8de65616-cfce-8065-8004-b65b957c65bc"/><g id="strokes-8de65616-cfce-8065-8004-b65b957c65bc" class="strokes"><path d="M154.836 80.009c0 5.577 4.039 10.098 9.022 10.098h9.023V69.911h-9.023c-4.983 0-9.022 4.521-9.022 10.098Z" style="fill: none; stroke-width: 2; stroke: rgb(0, 0, 0); stroke-opacity: 1;" class="stroke-shape"/></g></g><g id="shape-8de65616-cfce-8065-8004-b65b957c65bd" data-testid="svg-path"><path d="M154.836 100.205c0 5.577 4.039 10.099 9.022 10.099h9.023V90.107h-9.023c-4.983 0-9.022 4.521-9.022 10.098Z" style="fill: rgb(177, 178, 181); fill-opacity: 0;" class="fills" id="fills-8de65616-cfce-8065-8004-b65b957c65bd"/><g id="strokes-8de65616-cfce-8065-8004-b65b957c65bd" class="strokes"><path d="M154.836 100.205c0 5.577 4.039 10.099 9.022 10.099h9.023V90.107h-9.023c-4.983 0-9.022 4.521-9.022 10.098Z" style="fill: none; stroke-width: 2; stroke: rgb(0, 0, 0); stroke-opacity: 1;" class="stroke-shape"/></g></g></g><g id="shape-8de65616-cfce-8065-8004-b65b957c65be" data-testid="slack" xml:space="preserve" style="fill: rgb(0, 0, 0);"><g id="shape-8de65616-cfce-8065-8004-b65b957c65bf" data-testid="svg-path"><path d="M160.243 187.585a4.463 4.463 0 0 1-4.45 4.454 4.463 4.463 0 0 1-4.45-4.454 4.462 4.462 0 0 1 4.45-4.453h4.45v4.453Z" style="fill: rgb(255, 255, 255); fill-opacity: 0;" class="fills" id="fills-8de65616-cfce-8065-8004-b65b957c65bf"/><g id="strokes-8de65616-cfce-8065-8004-b65b957c65bf" class="strokes"><path d="M160.243 187.585a4.463 4.463 0 0 1-4.45 4.454 4.463 4.463 0 0 1-4.45-4.454 4.462 4.462 0 0 1 4.45-4.453h4.45v4.453Z" style="fill: none; stroke-width: 2; stroke: rgb(0, 0, 0); stroke-opacity: 1;" class="stroke-shape"/></g></g><g id="shape-8de65616-cfce-8065-8004-b65b957c65c0" data-testid="svg-path"><path d="M162.485 187.585a4.462 4.462 0 0 1 4.45-4.453 4.462 4.462 0 0 1 4.449 4.453v11.151c0 2.452-2 4.454-4.449 4.454a4.463 4.463 0 0 1-4.45-4.454v-11.151Z" style="fill: rgb(255, 255, 255); fill-opacity: 0;" class="fills" id="fills-8de65616-cfce-8065-8004-b65b957c65c0"/><g id="strokes-8de65616-cfce-8065-8004-b65b957c65c0" class="strokes"><path d="M162.485 187.585a4.462 4.462 0 0 1 4.45-4.453 4.462 4.462 0 0 1 4.449 4.453v11.151c0 2.452-2 4.454-4.449 4.454a4.463 4.463 0 0 1-4.45-4.454v-11.151Z" style="fill: none; stroke-width: 2; stroke: rgb(0, 0, 0); stroke-opacity: 1;" class="stroke-shape"/></g></g><g id="shape-8de65616-cfce-8065-8004-b65b957c65c1" data-testid="svg-path"><path d="M166.935 169.702a4.463 4.463 0 0 1-4.45-4.454 4.462 4.462 0 0 1 4.45-4.453 4.462 4.462 0 0 1 4.449 4.453v4.454h-4.449Z" style="fill: rgb(255, 255, 255); fill-opacity: 0;" class="fills" id="fills-8de65616-cfce-8065-8004-b65b957c65c1"/><g id="strokes-8de65616-cfce-8065-8004-b65b957c65c1" class="strokes"><path d="M166.935 169.702a4.463 4.463 0 0 1-4.45-4.454 4.462 4.462 0 0 1 4.45-4.453 4.462 4.462 0 0 1 4.449 4.453v4.454h-4.449Z" style="fill: none; stroke-width: 2; stroke: rgb(0, 0, 0); stroke-opacity: 1;" class="stroke-shape"/></g></g><g id="shape-8de65616-cfce-8065-8004-b65b957c65c2" data-testid="svg-path"><path d="M166.935 171.946a4.462 4.462 0 0 1 4.449 4.453c0 2.452-2 4.454-4.449 4.454h-11.142a4.463 4.463 0 0 1-4.45-4.454 4.462 4.462 0 0 1 4.45-4.453h11.142Z" style="fill: rgb(255, 255, 255); fill-opacity: 0;" class="fills" id="fills-8de65616-cfce-8065-8004-b65b957c65c2"/><g id="strokes-8de65616-cfce-8065-8004-b65b957c65c2" class="strokes"><path d="M166.935 171.946a4.462 4.462 0 0 1 4.449 4.453c0 2.452-2 4.454-4.449 4.454h-11.142a4.463 4.463 0 0 1-4.45-4.454 4.462 4.462 0 0 1 4.45-4.453h11.142Z" style="fill: none; stroke-width: 2; stroke: rgb(0, 0, 0); stroke-opacity: 1;" class="stroke-shape"/></g></g><g id="shape-8de65616-cfce-8065-8004-b65b957c65c3" data-testid="svg-path"><path d="M184.803 176.399c0-2.451 2-4.453 4.449-4.453a4.462 4.462 0 0 1 4.45 4.453 4.463 4.463 0 0 1-4.45 4.454h-4.449v-4.454Z" style="fill: rgb(255, 255, 255); fill-opacity: 0;" class="fills" id="fills-8de65616-cfce-8065-8004-b65b957c65c3"/><g id="strokes-8de65616-cfce-8065-8004-b65b957c65c3" class="strokes"><path d="M184.803 176.399c0-2.451 2-4.453 4.449-4.453a4.462 4.462 0 0 1 4.45 4.453 4.463 4.463 0 0 1-4.45 4.454h-4.449v-4.454Z" style="fill: none; stroke-width: 2; stroke: rgb(0, 0, 0); stroke-opacity: 1;" class="stroke-shape"/></g></g><g id="shape-8de65616-cfce-8065-8004-b65b957c65c4" data-testid="svg-path"><path d="M182.561 176.399a4.463 4.463 0 0 1-4.45 4.454 4.463 4.463 0 0 1-4.45-4.454v-11.151a4.462 4.462 0 0 1 4.45-4.453 4.462 4.462 0 0 1 4.45 4.453v11.151Z" style="fill: rgb(255, 255, 255); fill-opacity: 0;" class="fills" id="fills-8de65616-cfce-8065-8004-b65b957c65c4"/><g id="strokes-8de65616-cfce-8065-8004-b65b957c65c4" class="strokes"><path d="M182.561 176.399a4.463 4.463 0 0 1-4.45 4.454 4.463 4.463 0 0 1-4.45-4.454v-11.151a4.462 4.462 0 0 1 4.45-4.453 4.462 4.462 0 0 1 4.45 4.453v11.151Z" style="fill: none; stroke-width: 2; stroke: rgb(0, 0, 0); stroke-opacity: 1;" class="stroke-shape"/></g></g><g id="shape-8de65616-cfce-8065-8004-b65b957c65c5" data-testid="svg-path"><path d="M178.111 194.283a4.462 4.462 0 0 1 4.45 4.453 4.463 4.463 0 0 1-4.45 4.454 4.463 4.463 0 0 1-4.45-4.454v-4.453h4.45Z" style="fill: rgb(255, 255, 255); fill-opacity: 0;" class="fills" id="fills-8de65616-cfce-8065-8004-b65b957c65c5"/><g id="strokes-8de65616-cfce-8065-8004-b65b957c65c5" class="strokes"><path d="M178.111 194.283a4.462 4.462 0 0 1 4.45 4.453 4.463 4.463 0 0 1-4.45 4.454 4.463 4.463 0 0 1-4.45-4.454v-4.453h4.45Z" style="fill: none; stroke-width: 2; stroke: rgb(0, 0, 0); stroke-opacity: 1;" class="stroke-shape"/></g></g><g id="shape-8de65616-cfce-8065-8004-b65b957c65c6" data-testid="svg-path"><path d="M178.111 192.039a4.463 4.463 0 0 1-4.45-4.454 4.462 4.462 0 0 1 4.45-4.453h11.141a4.462 4.462 0 0 1 4.45 4.453 4.463 4.463 0 0 1-4.45 4.454h-11.141Z" style="fill: rgb(255, 255, 255); fill-opacity: 0;" class="fills" id="fills-8de65616-cfce-8065-8004-b65b957c65c6"/><g id="strokes-8de65616-cfce-8065-8004-b65b957c65c6" class="strokes"><path d="M178.111 192.039a4.463 4.463 0 0 1-4.45-4.454 4.462 4.462 0 0 1 4.45-4.453h11.141a4.462 4.462 0 0 1 4.45 4.453 4.463 4.463 0 0 1-4.45 4.454h-11.141Z" style="fill: none; stroke-width: 2; stroke: rgb(0, 0, 0); stroke-opacity: 1;" class="stroke-shape"/></g></g></g><g id="shape-8de65616-cfce-8065-8004-b65b957c65c7" data-testid="onestack_logo" xml:space="preserve" style="fill: rgb(0, 0, 0);"><g id="shape-8de65616-cfce-8065-8004-b65b957c65c8" data-testid="svg-path"><path d="M22.674 102.607v7.372l-15.103.038-.013 11.407c.005 1.358 0 2.717-.012 4.075-2.515-.002-5.031-.002-7.546-.002v19.399h7.558v15.324h7.752v7.566h11.046v-7.566h15.891v4.074l-15.891-.037v3.529l19.573-.019v-7.547h15.31v-15.324l7.448-.102-.001-19.278-7.447-.018v-15.519h-7.752l-.096-7.443-30.717.071Zm19.573 7.372H26.356v-3.686l15.821-.045.07 3.731Zm7.558-3.686v7.372c2.56.008 5.121.014 7.681.012l.071 1.151v2.716h-7.752l.194 31.425H26.356v-4.073h19.573v-38.603h3.876Zm-7.558 7.178v4.073H15.116v29.098l-.007 2.335s-2.67-.008-4.063-.008v-35.305l31.201-.193Zm0 7.759v4.267H22.674l.194 38.797h-4.07v-7.565h-7.752v-4.074h7.752V121.23h23.449Zm15.31 0v35.499H26.356v-4.074h27.131V121.23h4.07Zm-49.999 7.759v12.415h-4.07v-12.415h4.07Zm34.689 0 .194 12.415H26.356v-12.415h15.891Zm22.868 0v12.415h-3.876v-12.415h3.876Z" style="stroke: none; fill: rgb(0, 0, 0); fill-opacity: 1;" class="fills" id="fills-8de65616-cfce-8065-8004-b65b957c65c8"/></g></g></g></g></g></g></svg>