<svg width="268" xmlns="http://www.w3.org/2000/svg" height="224" id="screenshot-67d6133f-41d4-8044-8004-5cac4a19303f" fill="none" version="1.1"><g id="shape-67d6133f-41d4-8044-8004-5cac4a19303f"><g class="fills" id="fills-67d6133f-41d4-8044-8004-5cac4a19303f"><rect rx="0" ry="0" width="268" height="224" class="frame-background"/></g><g class="frame-children"><g id="shape-67d6133f-41d4-8044-8004-5cac01a5bc7e"><g id="shape-67d6133f-41d4-8044-8004-5ca038f8e476"><defs><linearGradient id="fill-color-gradient-render-3-0" x1=".013" y1=".538" x2="1" y2=".543"><stop offset="0" stop-color="#fff"/><stop offset="1" stop-color="#919191" stop-opacity="0"/></linearGradient><pattern patternUnits="userSpaceOnUse" x="65" y="0" width="203" height="224" id="fill-0-render-3"><rect width="203" height="224" style="fill: url(&quot;#fill-color-gradient-render-3-0&quot;);"/></pattern></defs><path d="M65 116.714 154.451 0h113.47L268 224H149.226l-51.914-66.127L65 116.714Z" fill="url(#fill-0-render-3)" class="fills" id="fills-67d6133f-41d4-8044-8004-5ca038f8e476"/></g><g id="shape-67d6133f-41d4-8044-8004-5cabe9cda3bf"><g id="shape-67d6133f-41d4-8044-8004-5c8fb36786fb" style="fill: rgb(0, 0, 0);"><defs style="fill: rgb(255, 255, 255); fill-opacity: 0;" id="shape-67d6133f-41d4-8044-8004-5c8fb367f42a"><style id="shape-67d6133f-41d4-8044-8004-5c8fb367f42b">.cls-2{fill:#006bff}.cls-3{fill:#0ae9ef}</style></defs><g id="shape-67d6133f-41d4-8044-8004-5c8fb3687664" style="fill: rgb(0, 0, 0);"><g id="shape-67d6133f-41d4-8044-8004-5c8fb3687665" style="fill: rgb(0, 0, 0);"><g id="shape-67d6133f-41d4-8044-8004-5c8fb368a16d" style="fill: rgb(0, 0, 0);"><g id="shape-67d6133f-41d4-8044-8004-5c8fb36992ba"><path d="m231.757 45.684-2.066 3.579a10.616 10.616 0 0 1-9.191 5.307h-4.133a10.616 10.616 0 0 1-9.192-5.307l-2.066-3.579a10.612 10.612 0 0 1 0-10.613l2.066-3.579a10.614 10.614 0 0 1 9.192-5.307h4.133c3.791 0 7.295 2.023 9.191 5.307l2.066 3.579c.248.429.465.875.651 1.335 0 .009.006.018.009.027a7.77 7.77 0 0 0 3.373-1.388c0-.01-.006-.021-.01-.033a18.115 18.115 0 0 0-2.533-5.141 18.304 18.304 0 0 0-3.955-4.068c-7.645-5.743-18.43-4.594-24.692 2.632-6.262 7.226-5.867 18.065.905 24.815a18.214 18.214 0 0 0 30.287-7.54 7.77 7.77 0 0 0-3.372-1.388c0 .01-.007.018-.01.027-.186.46-.404.906-.653 1.335Z" style="fill:rgb(255, 255, 255);fill-opacity:0" class="fills" id="fills-67d6133f-41d4-8044-8004-5c8fb36992ba"/><g class="strokes" id="strokes-67d6133f-41d4-8044-8004-5c8fb36992ba"><path d="m231.757 45.684-2.066 3.579a10.616 10.616 0 0 1-9.191 5.307h-4.133a10.616 10.616 0 0 1-9.192-5.307l-2.066-3.579a10.612 10.612 0 0 1 0-10.613l2.066-3.579a10.614 10.614 0 0 1 9.192-5.307h4.133c3.791 0 7.295 2.023 9.191 5.307l2.066 3.579c.248.429.465.875.651 1.335 0 .009.006.018.009.027a7.77 7.77 0 0 0 3.373-1.388c0-.01-.006-.021-.01-.033a18.115 18.115 0 0 0-2.533-5.141 18.304 18.304 0 0 0-3.955-4.068c-7.645-5.743-18.43-4.594-24.692 2.632-6.262 7.226-5.867 18.065.905 24.815a18.214 18.214 0 0 0 30.287-7.54 7.77 7.77 0 0 0-3.372-1.388c0 .01-.007.018-.01.027-.186.46-.404.906-.653 1.335Z" style="fill: none; stroke-width: 2; stroke: rgb(255, 255, 255); stroke-opacity: 1;" class="stroke-shape"/></g></g><g id="shape-67d6133f-41d4-8044-8004-5c8fb369fd42"><g class="fills" id="fills-67d6133f-41d4-8044-8004-5c8fb369fd42"><path d="M225.417 46.428c-1.293 1.148-2.907 2.577-5.841 2.577h-1.75c-2.121 0-4.049-.77-5.429-2.168-1.348-1.364-2.091-3.233-2.091-5.261v-2.397c0-2.028.743-3.896 2.091-5.261 1.38-1.398 3.308-2.168 5.429-2.168h1.75c2.934 0 4.546 1.429 5.841 2.577 1.343 1.191 2.503 2.218 5.593 2.218a8.84 8.84 0 0 0 1.407-.112c0-.009-.006-.018-.009-.027-.186-.46-.403-.906-.651-1.335l-2.066-3.579a10.614 10.614 0 0 0-9.191-5.307h-4.133a10.614 10.614 0 0 0-9.192 5.307l-2.066 3.579a10.612 10.612 0 0 0 0 10.613l2.066 3.579a10.616 10.616 0 0 0 9.192 5.307h4.133a10.616 10.616 0 0 0 9.191-5.307l2.066-3.579c.248-.429.465-.875.651-1.335 0-.009.006-.017.009-.027a8.84 8.84 0 0 0-1.407-.112c-3.09 0-4.25 1.028-5.593 2.218Z" class="cls-2" style="fill: rgb(255, 255, 255); fill-opacity: 0;"/></g><g class="strokes" id="strokes-67d6133f-41d4-8044-8004-5c8fb369fd42"><path d="M225.417 46.428c-1.293 1.148-2.907 2.577-5.841 2.577h-1.75c-2.121 0-4.049-.77-5.429-2.168-1.348-1.364-2.091-3.233-2.091-5.261v-2.397c0-2.028.743-3.896 2.091-5.261 1.38-1.398 3.308-2.168 5.429-2.168h1.75c2.934 0 4.546 1.429 5.841 2.577 1.343 1.191 2.503 2.218 5.593 2.218a8.84 8.84 0 0 0 1.407-.112c0-.009-.006-.018-.009-.027-.186-.46-.403-.906-.651-1.335l-2.066-3.579a10.614 10.614 0 0 0-9.191-5.307h-4.133a10.614 10.614 0 0 0-9.192 5.307l-2.066 3.579a10.612 10.612 0 0 0 0 10.613l2.066 3.579a10.616 10.616 0 0 0 9.192 5.307h4.133a10.616 10.616 0 0 0 9.191-5.307l2.066-3.579c.248-.429.465-.875.651-1.335 0-.009.006-.017.009-.027a8.84 8.84 0 0 0-1.407-.112c-3.09 0-4.25 1.028-5.593 2.218Z" style="fill: none; stroke-width: 2; stroke: rgb(255, 255, 255); stroke-opacity: 1;" class="stroke-shape"/></g></g><g id="shape-67d6133f-41d4-8044-8004-5c8fb36a3c4f"><g class="fills" id="fills-67d6133f-41d4-8044-8004-5c8fb36a3c4f"><path d="M219.576 33.922h-1.75c-3.227 0-5.348 2.305-5.348 5.255v2.398c0 2.95 2.121 5.256 5.348 5.256h1.75c4.703 0 4.336-4.793 11.434-4.793.673-.001 1.344.061 2.006.183a10.613 10.613 0 0 0 0-3.686c-.661.123-1.333.184-2.006.184-7.1-.001-6.731-4.797-11.434-4.797Z" class="cls-2" style="fill: rgb(255, 255, 255); fill-opacity: 0;"/></g><g class="strokes" id="strokes-67d6133f-41d4-8044-8004-5c8fb36a3c4f"><path d="M219.576 33.922h-1.75c-3.227 0-5.348 2.305-5.348 5.255v2.398c0 2.95 2.121 5.256 5.348 5.256h1.75c4.703 0 4.336-4.793 11.434-4.793.673-.001 1.344.061 2.006.183a10.613 10.613 0 0 0 0-3.686c-.661.123-1.333.184-2.006.184-7.1-.001-6.731-4.797-11.434-4.797Z" style="fill: none; stroke-width: 2; stroke: rgb(255, 255, 255); stroke-opacity: 1;" class="stroke-shape"/></g></g><g id="shape-67d6133f-41d4-8044-8004-5c8fb36a5b10"><g class="fills" id="fills-67d6133f-41d4-8044-8004-5c8fb36a5b10"><path d="M237.095 43.973a9.919 9.919 0 0 0-4.079-1.75c0 .013-.004.025-.006.036-.127.707-.325 1.4-.593 2.066a7.782 7.782 0 0 1 3.373 1.388c0 .011-.006.021-.01.033a18.283 18.283 0 0 1-6.488 9.208c-7.645 5.752-18.437 4.604-24.702-2.625-6.265-7.23-5.865-18.075.915-24.824a18.214 18.214 0 0 1 30.277 7.507l.01.033a7.769 7.769 0 0 1-3.375 1.387 10.537 10.537 0 0 1 .599 2.101 9.873 9.873 0 0 0 4.079-1.75c1.163-.86.938-1.832.761-2.407C235.293 26.049 227.542 20 218.377 20 207.124 20 198 29.124 198 40.377c0 11.254 9.124 20.378 20.377 20.378 9.165 0 16.916-6.049 19.475-14.373.181-.575.406-1.548-.757-2.409Z" class="cls-2" style="fill: rgb(255, 255, 255); fill-opacity: 0;"/></g><g class="strokes" id="strokes-67d6133f-41d4-8044-8004-5c8fb36a5b10"><path d="M237.095 43.973a9.919 9.919 0 0 0-4.079-1.75c0 .013-.004.025-.006.036-.127.707-.325 1.4-.593 2.066a7.782 7.782 0 0 1 3.373 1.388c0 .011-.006.021-.01.033a18.283 18.283 0 0 1-6.488 9.208c-7.645 5.752-18.437 4.604-24.702-2.625-6.265-7.23-5.865-18.075.915-24.824a18.214 18.214 0 0 1 30.277 7.507l.01.033a7.769 7.769 0 0 1-3.375 1.387 10.537 10.537 0 0 1 .599 2.101 9.873 9.873 0 0 0 4.079-1.75c1.163-.86.938-1.832.761-2.407C235.293 26.049 227.542 20 218.377 20 207.124 20 198 29.124 198 40.377c0 11.254 9.124 20.378 20.377 20.378 9.165 0 16.916-6.049 19.475-14.373.181-.575.406-1.548-.757-2.409Z" style="fill: none; stroke-width: 2; stroke: rgb(255, 255, 255); stroke-opacity: 1;" class="stroke-shape"/></g></g><g id="shape-67d6133f-41d4-8044-8004-5c8fb36a5b11"><g class="fills" id="fills-67d6133f-41d4-8044-8004-5c8fb36a5b11"><path d="M232.417 36.432a8.841 8.841 0 0 1-1.407.113c-3.09 0-4.25-1.028-5.593-2.219-1.293-1.148-2.907-2.576-5.841-2.576h-1.75c-2.121 0-4.049.769-5.429 2.167-1.348 1.365-2.091 3.233-2.091 5.261v2.397c0 2.028.743 3.897 2.091 5.262 1.38 1.397 3.308 2.167 5.429 2.167h1.75c2.934 0 4.546-1.429 5.841-2.577 1.343-1.19 2.503-2.218 5.593-2.218.471 0 .942.038 1.407.113.268-.667.466-1.359.593-2.067 0-.011.005-.023.006-.035a10.976 10.976 0 0 0-2.006-.184c-7.1 0-6.731 4.793-11.434 4.793h-1.75c-3.227 0-5.348-2.305-5.348-5.256v-2.394c0-2.951 2.121-5.256 5.348-5.256h1.75c4.703 0 4.336 4.793 11.434 4.793.673 0 1.345-.061 2.006-.184 0-.011 0-.022-.005-.034a10.607 10.607 0 0 0-.594-2.066Z" class="cls-3" style="fill: rgb(255, 255, 255); fill-opacity: 0;"/></g><g class="strokes" id="strokes-67d6133f-41d4-8044-8004-5c8fb36a5b11"><path d="M232.417 36.432a8.841 8.841 0 0 1-1.407.113c-3.09 0-4.25-1.028-5.593-2.219-1.293-1.148-2.907-2.576-5.841-2.576h-1.75c-2.121 0-4.049.769-5.429 2.167-1.348 1.365-2.091 3.233-2.091 5.261v2.397c0 2.028.743 3.897 2.091 5.262 1.38 1.397 3.308 2.167 5.429 2.167h1.75c2.934 0 4.546-1.429 5.841-2.577 1.343-1.19 2.503-2.218 5.593-2.218.471 0 .942.038 1.407.113.268-.667.466-1.359.593-2.067 0-.011.005-.023.006-.035a10.976 10.976 0 0 0-2.006-.184c-7.1 0-6.731 4.793-11.434 4.793h-1.75c-3.227 0-5.348-2.305-5.348-5.256v-2.394c0-2.951 2.121-5.256 5.348-5.256h1.75c4.703 0 4.336 4.793 11.434 4.793.673 0 1.345-.061 2.006-.184 0-.011 0-.022-.005-.034a10.607 10.607 0 0 0-.594-2.066Z" style="fill: none; stroke-width: 2; stroke: rgb(255, 255, 255); stroke-opacity: 1;" class="stroke-shape"/></g></g><g id="shape-67d6133f-41d4-8044-8004-5c8fb36a9014"><g class="fills" id="fills-67d6133f-41d4-8044-8004-5c8fb36a9014"><path d="M232.417 36.432a8.841 8.841 0 0 1-1.407.113c-3.09 0-4.25-1.028-5.593-2.219-1.293-1.148-2.907-2.576-5.841-2.576h-1.75c-2.121 0-4.049.769-5.429 2.167-1.348 1.365-2.091 3.233-2.091 5.261v2.397c0 2.028.743 3.897 2.091 5.262 1.38 1.397 3.308 2.167 5.429 2.167h1.75c2.934 0 4.546-1.429 5.841-2.577 1.343-1.19 2.503-2.218 5.593-2.218.471 0 .942.038 1.407.113.268-.667.466-1.359.593-2.067 0-.011.005-.023.006-.035a10.976 10.976 0 0 0-2.006-.184c-7.1 0-6.731 4.793-11.434 4.793h-1.75c-3.227 0-5.348-2.305-5.348-5.256v-2.394c0-2.951 2.121-5.256 5.348-5.256h1.75c4.703 0 4.336 4.793 11.434 4.793.673 0 1.345-.061 2.006-.184 0-.011 0-.022-.005-.034a10.607 10.607 0 0 0-.594-2.066Z" class="cls-3" style="fill: rgb(255, 255, 255); fill-opacity: 0;"/></g><g class="strokes" id="strokes-67d6133f-41d4-8044-8004-5c8fb36a9014"><path d="M232.417 36.432a8.841 8.841 0 0 1-1.407.113c-3.09 0-4.25-1.028-5.593-2.219-1.293-1.148-2.907-2.576-5.841-2.576h-1.75c-2.121 0-4.049.769-5.429 2.167-1.348 1.365-2.091 3.233-2.091 5.261v2.397c0 2.028.743 3.897 2.091 5.262 1.38 1.397 3.308 2.167 5.429 2.167h1.75c2.934 0 4.546-1.429 5.841-2.577 1.343-1.19 2.503-2.218 5.593-2.218.471 0 .942.038 1.407.113.268-.667.466-1.359.593-2.067 0-.011.005-.023.006-.035a10.976 10.976 0 0 0-2.006-.184c-7.1 0-6.731 4.793-11.434 4.793h-1.75c-3.227 0-5.348-2.305-5.348-5.256v-2.394c0-2.951 2.121-5.256 5.348-5.256h1.75c4.703 0 4.336 4.793 11.434 4.793.673 0 1.345-.061 2.006-.184 0-.011 0-.022-.005-.034a10.607 10.607 0 0 0-.594-2.066Z" style="fill: none; stroke-width: 2; stroke: rgb(255, 255, 255); stroke-opacity: 1;" class="stroke-shape"/></g></g></g></g></g></g><g id="shape-67d6133f-41d4-8044-8004-5c8fd564ce78" style="fill: rgb(0, 0, 0);"><g id="shape-67d6133f-41d4-8044-8004-5c8fd5674f72"><defs><linearGradient x1="256" y1="96" x2="256" y2="416" id="render-18-g" gradientUnits="userSpaceOnUse" gradientTransform="matrix(.12505 0 0 .12505 187.978 79.372)"><stop stop-color="#fff"/><stop offset="1" stop-color="#CCC"/></linearGradient></defs><path d="M232.667 126.181a.58.58 0 0 0 .802.023c.226-.206.448-.418.665-.635 7.821-7.822 7.821-20.503 0-28.325-7.822-7.822-20.504-7.822-28.325 0-.217.217-.429.438-.636.665a.58.58 0 0 0 .024.802l27.47 27.47Z" fill="url(#render-18-g)" style="fill: rgb(255, 255, 255); fill-opacity: 1;" class="fills" id="fills-67d6133f-41d4-8044-8004-5c8fd5674f72"/></g><g id="shape-67d6133f-41d4-8044-8004-5c8fd5674f73"><defs><radialGradient cx="0" cy="0" r="1" id="render-19-h" gradientTransform="rotate(90 64.307 155.685) scale(40.01728)" gradientUnits="userSpaceOnUse"><stop stop-color="#fff"/><stop offset=".598" stop-color="#fff" stop-opacity="0"/></radialGradient></defs><path d="M232.667 126.181a.58.58 0 0 0 .802.023c.226-.206.448-.418.665-.635 7.821-7.822 7.821-20.503 0-28.325-7.822-7.822-20.504-7.822-28.325 0-.217.217-.429.438-.636.665a.58.58 0 0 0 .024.802l27.47 27.47Z" fill="url(#render-19-h)" style="fill: rgb(255, 255, 255); fill-opacity: 1;" class="fills" id="fills-67d6133f-41d4-8044-8004-5c8fd5674f73"/></g><g id="shape-67d6133f-41d4-8044-8004-5c8fd567aacc"><defs><linearGradient x1="256" y1="96" x2="256" y2="416" id="render-20-i" gradientUnits="userSpaceOnUse" gradientTransform="matrix(.12505 0 0 .12505 187.978 79.372)"><stop stop-color="#fff"/><stop offset="1" stop-color="#CCC"/></linearGradient></defs><path d="M230.037 128.728a.577.577 0 0 0 .11-.909l-26.588-26.588a.577.577 0 0 0-.909.109c-.324.558-.622 1.13-.89 1.717a.58.58 0 0 0 .121.654l25.786 25.786a.583.583 0 0 0 .654.121 20.045 20.045 0 0 0 1.716-.89Z" fill="url(#render-20-i)" style="fill: rgb(255, 255, 255); fill-opacity: 1;" class="fills" id="fills-67d6133f-41d4-8044-8004-5c8fd567aacc"/></g><g id="shape-67d6133f-41d4-8044-8004-5c8fd567aacd"><defs><radialGradient cx="0" cy="0" r="1" id="render-21-j" gradientTransform="rotate(90 64.307 155.685) scale(40.01728)" gradientUnits="userSpaceOnUse"><stop stop-color="#fff"/><stop offset=".598" stop-color="#fff" stop-opacity="0"/></radialGradient></defs><path d="M230.037 128.728a.577.577 0 0 0 .11-.909l-26.588-26.588a.577.577 0 0 0-.909.109c-.324.558-.622 1.13-.89 1.717a.58.58 0 0 0 .121.654l25.786 25.786a.583.583 0 0 0 .654.121 20.045 20.045 0 0 0 1.716-.89Z" fill="url(#render-21-j)" style="fill: rgb(255, 255, 255); fill-opacity: 1;" class="fills" id="fills-67d6133f-41d4-8044-8004-5c8fd567aacd"/></g><g id="shape-67d6133f-41d4-8044-8004-5c8fd568084e"><defs><linearGradient x1="256" y1="96" x2="256" y2="416" id="render-22-k" gradientUnits="userSpaceOnUse" gradientTransform="matrix(.12505 0 0 .12505 187.978 79.372)"><stop stop-color="#fff"/><stop offset="1" stop-color="#CCC"/></linearGradient></defs><path d="M223.825 131.063c.453-.088.608-.642.282-.968l-22.824-22.825c-.326-.326-.88-.17-.969.282a20.167 20.167 0 0 0-.312 2.309.58.58 0 0 0 .17.457l20.888 20.887c.12.121.287.183.457.171.775-.06 1.546-.164 2.308-.313Z" fill="url(#render-22-k)" style="fill: rgb(255, 255, 255); fill-opacity: 1;" class="fills" id="fills-67d6133f-41d4-8044-8004-5c8fd568084e"/></g><g id="shape-67d6133f-41d4-8044-8004-5c8fd568084f"><defs><radialGradient cx="0" cy="0" r="1" id="render-23-l" gradientTransform="rotate(90 64.307 155.685) scale(40.01728)" gradientUnits="userSpaceOnUse"><stop stop-color="#fff"/><stop offset=".598" stop-color="#fff" stop-opacity="0"/></radialGradient></defs><path d="M223.825 131.063c.453-.088.608-.642.282-.968l-22.824-22.825c-.326-.326-.88-.17-.969.282a20.167 20.167 0 0 0-.312 2.309.58.58 0 0 0 .17.457l20.888 20.887c.12.121.287.183.457.171.775-.06 1.546-.164 2.308-.313Z" fill="url(#render-23-l)" style="fill: rgb(255, 255, 255); fill-opacity: 1;" class="fills" id="fills-67d6133f-41d4-8044-8004-5c8fd568084f"/></g><g id="shape-67d6133f-41d4-8044-8004-5c8fd5680850"><defs><linearGradient x1="256" y1="96" x2="256" y2="416" id="render-24-m" gradientUnits="userSpaceOnUse" gradientTransform="matrix(.12505 0 0 .12505 187.978 79.372)"><stop stop-color="#fff"/><stop offset="1" stop-color="#CCC"/></linearGradient></defs><path d="M215.118 130.842c.557.138.901-.52.495-.926l-14.152-14.152c-.405-.405-1.063-.061-.925.495a19.93 19.93 0 0 0 5.273 9.31 19.936 19.936 0 0 0 9.309 5.273Z" fill="url(#render-24-m)" style="fill: rgb(255, 255, 255); fill-opacity: 1;" class="fills" id="fills-67d6133f-41d4-8044-8004-5c8fd5680850"/></g></g><g id="shape-67d6133f-41d4-8044-8004-5c8fec0f6cc3" style="fill: rgb(0, 0, 0);"><g id="shape-67d6133f-41d4-8044-8004-5c8fec109771"><path d="m227.781 164.5-20.814.833a.776.776 0 0 0-.048.004l-.036.003a1.667 1.667 0 0 0-1.55 1.66v23.158c0 .987.294 1.952.84 2.773l4.44 6.66c.33.495.898.776 1.491.739l26.667-1.667a1.666 1.666 0 0 0 1.562-1.663v-25.833c0-.418-.157-.819-.439-1.127a.837.837 0 0 0-.248-.218l-.003-.003a1.637 1.637 0 0 0-.312-.179l-6.836-3.9.055.036a7.509 7.509 0 0 0-4.769-1.276Zm.095 1.663c.009.001.019.001 0 0Za5.87 5.87 0 0 1 3.792 1.026l4.206 2.399-22.448.726-3.978-3.412 18.428-.739Zm9.124 6.726v22.545l-23.333 1.459v-23.252l23.333-.752Zm-2.598 3.281c-1.69.1-3.389.182-5.084.309-.557.042-.97.523-1.039 1.052-.031.246.036.373.316.393.513.039 1.023.111 1.556.173v9.782c-.157-.225-.242-.344-.322-.466-2.184-3.298-4.377-6.59-6.54-9.902-.327-.5-.632-.741-1.286-.667-1.528.168-3.069.218-4.603.342-.85.068-1.354.812-1.126 1.621l1.748.153v14.052c-.39.11-.778.234-1.172.329-.4.097-.587.366-.664.736-.061.296.011.446.375.42 1.248-.089 2.503-.143 3.753-.218.516-.03 1.034-.041 1.543-.124.693-.115 1.071-.538 1.146-1.214-.617-.137-1.237-.287-1.862-.407-.279-.053-.373-.168-.371-.456.01-3.26.008-6.522.009-9.782 0-.106.023-.215.043-.394.096.129.135.181.172.238 1.687 2.618 3.369 5.243 5.065 7.855.73 1.123 1.478 2.235 2.246 3.333.557.797 1.373 1.05 2.302.856.58-.121 1.137-.354 1.706-.534.316-.1.408-.304.406-.638-.011-4.79-.006-9.578-.006-14.368 0-.892-.003-.891.882-1.074.813-.169 1.052-.567.807-1.4Z" style="fill: rgb(255, 255, 255); fill-opacity: 1;" class="fills" id="fills-67d6133f-41d4-8044-8004-5c8fec109771"/></g></g><g id="shape-67d6133f-41d4-8044-8004-5c8fb007ca00" style="fill: rgb(0, 0, 0);"><g id="shape-67d6133f-41d4-8044-8004-5c8fb008ab84"><path d="M148.5 86c0-4.786 3.47-8.667 7.75-8.667 4.28 0 7.75 3.881 7.75 8.667s-3.47 8.667-7.75 8.667c-4.28 0-7.75-3.881-7.75-8.667Z" style="fill: rgb(177, 178, 181); fill-opacity: 0;" class="fills" id="fills-67d6133f-41d4-8044-8004-5c8fb008ab84"/><g id="strokes-67d6133f-41d4-8044-8004-5c8fb008ab84" class="strokes"><path d="M148.5 86c0-4.786 3.47-8.667 7.75-8.667 4.28 0 7.75 3.881 7.75 8.667s-3.47 8.667-7.75 8.667c-4.28 0-7.75-3.881-7.75-8.667Z" style="fill: none; stroke-width: 2; stroke: rgb(255, 255, 255); stroke-opacity: 1;" class="stroke-shape"/></g></g><g id="shape-67d6133f-41d4-8044-8004-5c8fb008d54c"><path d="M133 103.333c0-4.786 3.47-8.666 7.75-8.666h7.75v8.666c0 4.787-3.47 8.667-7.75 8.667-4.28 0-7.75-3.88-7.75-8.667Z" style="fill: rgb(177, 178, 181); fill-opacity: 0;" class="fills" id="fills-67d6133f-41d4-8044-8004-5c8fb008d54c"/><g id="strokes-67d6133f-41d4-8044-8004-5c8fb008d54c" class="strokes"><path d="M133 103.333c0-4.786 3.47-8.666 7.75-8.666h7.75v8.666c0 4.787-3.47 8.667-7.75 8.667-4.28 0-7.75-3.88-7.75-8.667Z" style="fill: none; stroke-width: 2; stroke: rgb(255, 255, 255); stroke-opacity: 1;" class="stroke-shape"/></g></g><g id="shape-67d6133f-41d4-8044-8004-5c8fb008d54d"><path d="M148.5 60v17.333h7.75c4.28 0 7.75-3.88 7.75-8.666 0-4.787-3.47-8.667-7.75-8.667h-7.75Z" style="fill: rgb(177, 178, 181); fill-opacity: 0;" class="fills" id="fills-67d6133f-41d4-8044-8004-5c8fb008d54d"/><g id="strokes-67d6133f-41d4-8044-8004-5c8fb008d54d" class="strokes"><path d="M148.5 60v17.333h7.75c4.28 0 7.75-3.88 7.75-8.666 0-4.787-3.47-8.667-7.75-8.667h-7.75Z" style="fill: none; stroke-width: 2; stroke: rgb(255, 255, 255); stroke-opacity: 1;" class="stroke-shape"/></g></g><g id="shape-67d6133f-41d4-8044-8004-5c8fb0093c82"><path d="M133 68.667c0 4.786 3.47 8.666 7.75 8.666h7.75V60h-7.75c-4.28 0-7.75 3.88-7.75 8.667Z" style="fill: rgb(177, 178, 181); fill-opacity: 0;" class="fills" id="fills-67d6133f-41d4-8044-8004-5c8fb0093c82"/><g id="strokes-67d6133f-41d4-8044-8004-5c8fb0093c82" class="strokes"><path d="M133 68.667c0 4.786 3.47 8.666 7.75 8.666h7.75V60h-7.75c-4.28 0-7.75 3.88-7.75 8.667Z" style="fill: none; stroke-width: 2; stroke: rgb(255, 255, 255); stroke-opacity: 1;" class="stroke-shape"/></g></g><g id="shape-67d6133f-41d4-8044-8004-5c8fb0093c83"><path d="M133 86c0 4.786 3.47 8.667 7.75 8.667h7.75V77.333h-7.75c-4.28 0-7.75 3.881-7.75 8.667Z" style="fill: rgb(177, 178, 181); fill-opacity: 0;" class="fills" id="fills-67d6133f-41d4-8044-8004-5c8fb0093c83"/><g id="strokes-67d6133f-41d4-8044-8004-5c8fb0093c83" class="strokes"><path d="M133 86c0 4.786 3.47 8.667 7.75 8.667h7.75V77.333h-7.75c-4.28 0-7.75 3.881-7.75 8.667Z" style="fill: none; stroke-width: 2; stroke: rgb(255, 255, 255); stroke-opacity: 1;" class="stroke-shape"/></g></g></g><g id="shape-67d6133f-41d4-8044-8004-5c905ada2d6b" xml:space="preserve" style="fill: rgb(0, 0, 0);"><g id="shape-67d6133f-41d4-8044-8004-5c905adb2d3a"><path d="M137.644 160.993a3.831 3.831 0 0 1-3.822 3.822 3.832 3.832 0 0 1-3.822-3.822 3.832 3.832 0 0 1 3.822-3.823h3.822v3.823Z" style="fill: rgb(255, 255, 255); fill-opacity: 0;" class="fills" id="fills-67d6133f-41d4-8044-8004-5c905adb2d3a"/><g id="strokes-67d6133f-41d4-8044-8004-5c905adb2d3a" class="strokes"><path d="M137.644 160.993a3.831 3.831 0 0 1-3.822 3.822 3.832 3.832 0 0 1-3.822-3.822 3.832 3.832 0 0 1 3.822-3.823h3.822v3.823Z" style="fill: none; stroke-width: 2; stroke: rgb(255, 255, 255); stroke-opacity: 1;" class="stroke-shape"/></g></g><g id="shape-67d6133f-41d4-8044-8004-5c905adb2d3b"><path d="M139.57 160.993a3.832 3.832 0 0 1 3.823-3.823 3.832 3.832 0 0 1 3.822 3.823v9.57a3.831 3.831 0 0 1-3.822 3.822 3.832 3.832 0 0 1-3.823-3.822v-9.57Z" style="fill: rgb(255, 255, 255); fill-opacity: 0;" class="fills" id="fills-67d6133f-41d4-8044-8004-5c905adb2d3b"/><g id="strokes-67d6133f-41d4-8044-8004-5c905adb2d3b" class="strokes"><path d="M139.57 160.993a3.832 3.832 0 0 1 3.823-3.823 3.832 3.832 0 0 1 3.822 3.823v9.57a3.831 3.831 0 0 1-3.822 3.822 3.832 3.832 0 0 1-3.823-3.822v-9.57Z" style="fill: none; stroke-width: 2; stroke: rgb(255, 255, 255); stroke-opacity: 1;" class="stroke-shape"/></g></g><g id="shape-67d6133f-41d4-8044-8004-5c905adb5430"><path d="M143.393 145.644a3.832 3.832 0 0 1-3.823-3.822 3.832 3.832 0 0 1 3.823-3.822 3.832 3.832 0 0 1 3.822 3.822v3.822h-3.822Z" style="fill: rgb(255, 255, 255); fill-opacity: 0;" class="fills" id="fills-67d6133f-41d4-8044-8004-5c905adb5430"/><g id="strokes-67d6133f-41d4-8044-8004-5c905adb5430" class="strokes"><path d="M143.393 145.644a3.832 3.832 0 0 1-3.823-3.822 3.832 3.832 0 0 1 3.823-3.822 3.832 3.832 0 0 1 3.822 3.822v3.822h-3.822Z" style="fill: none; stroke-width: 2; stroke: rgb(255, 255, 255); stroke-opacity: 1;" class="stroke-shape"/></g></g><g id="shape-67d6133f-41d4-8044-8004-5c905adb5431"><path d="M143.393 147.57a3.832 3.832 0 0 1 3.822 3.823 3.832 3.832 0 0 1-3.822 3.822h-9.571a3.832 3.832 0 0 1-3.822-3.822 3.832 3.832 0 0 1 3.822-3.823h9.571Z" style="fill: rgb(255, 255, 255); fill-opacity: 0;" class="fills" id="fills-67d6133f-41d4-8044-8004-5c905adb5431"/><g id="strokes-67d6133f-41d4-8044-8004-5c905adb5431" class="strokes"><path d="M143.393 147.57a3.832 3.832 0 0 1 3.822 3.823 3.832 3.832 0 0 1-3.822 3.822h-9.571a3.832 3.832 0 0 1-3.822-3.822 3.832 3.832 0 0 1 3.822-3.823h9.571Z" style="fill: none; stroke-width: 2; stroke: rgb(255, 255, 255); stroke-opacity: 1;" class="stroke-shape"/></g></g><g id="shape-67d6133f-41d4-8044-8004-5c905adb9031"><path d="M158.741 151.393a3.832 3.832 0 0 1 3.822-3.823 3.832 3.832 0 0 1 3.822 3.823 3.831 3.831 0 0 1-3.822 3.822h-3.822v-3.822Z" style="fill: rgb(255, 255, 255); fill-opacity: 0;" class="fills" id="fills-67d6133f-41d4-8044-8004-5c905adb9031"/><g id="strokes-67d6133f-41d4-8044-8004-5c905adb9031" class="strokes"><path d="M158.741 151.393a3.832 3.832 0 0 1 3.822-3.823 3.832 3.832 0 0 1 3.822 3.823 3.831 3.831 0 0 1-3.822 3.822h-3.822v-3.822Z" style="fill: none; stroke-width: 2; stroke: rgb(255, 255, 255); stroke-opacity: 1;" class="stroke-shape"/></g></g><g id="shape-67d6133f-41d4-8044-8004-5c905adb9032"><path d="M156.815 151.393a3.832 3.832 0 0 1-3.822 3.822 3.832 3.832 0 0 1-3.823-3.822v-9.571a3.832 3.832 0 0 1 3.823-3.822 3.832 3.832 0 0 1 3.822 3.822v9.571Z" style="fill: rgb(255, 255, 255); fill-opacity: 0;" class="fills" id="fills-67d6133f-41d4-8044-8004-5c905adb9032"/><g id="strokes-67d6133f-41d4-8044-8004-5c905adb9032" class="strokes"><path d="M156.815 151.393a3.832 3.832 0 0 1-3.822 3.822 3.832 3.832 0 0 1-3.823-3.822v-9.571a3.832 3.832 0 0 1 3.823-3.822 3.832 3.832 0 0 1 3.822 3.822v9.571Z" style="fill: none; stroke-width: 2; stroke: rgb(255, 255, 255); stroke-opacity: 1;" class="stroke-shape"/></g></g><g id="shape-67d6133f-41d4-8044-8004-5c905adbcde3"><path d="M152.993 166.741a3.831 3.831 0 0 1 3.822 3.822 3.831 3.831 0 0 1-3.822 3.822 3.832 3.832 0 0 1-3.823-3.822v-3.822h3.823Z" style="fill: rgb(255, 255, 255); fill-opacity: 0;" class="fills" id="fills-67d6133f-41d4-8044-8004-5c905adbcde3"/><g id="strokes-67d6133f-41d4-8044-8004-5c905adbcde3" class="strokes"><path d="M152.993 166.741a3.831 3.831 0 0 1 3.822 3.822 3.831 3.831 0 0 1-3.822 3.822 3.832 3.832 0 0 1-3.823-3.822v-3.822h3.823Z" style="fill: none; stroke-width: 2; stroke: rgb(255, 255, 255); stroke-opacity: 1;" class="stroke-shape"/></g></g><g id="shape-67d6133f-41d4-8044-8004-5c905adbcde4"><path d="M152.993 164.815a3.832 3.832 0 0 1-3.823-3.822 3.832 3.832 0 0 1 3.823-3.823h9.57a3.832 3.832 0 0 1 3.822 3.823 3.831 3.831 0 0 1-3.822 3.822h-9.57Z" style="fill: rgb(255, 255, 255); fill-opacity: 0;" class="fills" id="fills-67d6133f-41d4-8044-8004-5c905adbcde4"/><g id="strokes-67d6133f-41d4-8044-8004-5c905adbcde4" class="strokes"><path d="M152.993 164.815a3.832 3.832 0 0 1-3.823-3.822 3.832 3.832 0 0 1 3.823-3.823h9.57a3.832 3.832 0 0 1 3.822 3.823 3.831 3.831 0 0 1-3.822 3.822h-9.57Z" style="fill: none; stroke-width: 2; stroke: rgb(255, 255, 255); stroke-opacity: 1;" class="stroke-shape"/></g></g></g><g id="shape-67d6133f-41d4-8044-8004-5c92de480252" xml:space="preserve" style="fill: rgb(0, 0, 0);"><g id="shape-67d6133f-41d4-8044-8004-5c92de4a32d4"><path d="M19.476 88.062v6.326l-12.973.032-.011 9.79c.004 1.166 0 2.332-.01 3.498-2.161-.002-4.321-.001-6.482-.001v16.648h6.492v13.152h6.659V144h9.488v-6.493h13.65v3.496l-13.65-.031V144l16.813-.016v-6.477h13.151v-13.152l6.397-.087v-16.546l-6.397-.015V94.388h-6.659L45.862 88l-26.386.062Zm16.813 6.326h-13.65v-3.163l13.59-.039.06 3.202Zm6.492-3.163v6.326c2.199.007 4.399.013 6.598.011l.061.988v2.331h-6.659l.167 26.97H22.639v-3.496h16.813v-33.13h3.329Zm-6.492 6.16v3.496H12.984v24.972l-.006 2.005s-2.294-.007-3.49-.007v-30.3l26.801-.166Zm0 6.659v3.663H19.476l.167 33.296h-3.496v-6.493H9.488v-3.496h6.659v-26.97h20.142Zm13.151 0v30.466H22.639v-3.496h23.305v-26.97h3.496Zm-42.948 6.659v10.655H2.996v-10.655h3.496Zm29.797 0 .167 10.655H22.639v-10.655h13.65Zm19.643 0v10.655h-3.329v-10.655h3.329Z" style="stroke: none; fill: rgb(255, 255, 255); fill-opacity: 1;" class="fills" id="fills-67d6133f-41d4-8044-8004-5c92de4a32d4"/></g></g></g></g></g></g></svg>